<svg width="52" height="52" viewBox="0 0 52 52" fill="none" xmlns="http://www.w3.org/2000/svg">
<g filter="url(#filter0_d_64_745)">
<rect x="4" y="2" width="44" height="44" rx="22" fill="white"/>
<path fill-rule="evenodd" clip-rule="evenodd" d="M17.1269 22.7817C17.2474 22.2995 17.7361 22.0063 18.2183 22.1268L18 23C18.2183 22.1268 18.2184 22.1269 18.2183 22.1268L18.2217 22.1277L18.2423 22.1326C18.2619 22.1373 18.2928 22.1444 18.3349 22.1539C18.4191 22.1727 18.548 22.2003 18.7197 22.2339C19.063 22.3011 19.5772 22.3919 20.2466 22.4832C21.5856 22.6658 23.5448 22.85 26 22.85C28.4552 22.85 30.4144 22.6658 31.7534 22.4832C32.4228 22.3919 32.937 22.3011 33.2803 22.2339C33.452 22.2003 33.5809 22.1727 33.6651 22.1539C33.7072 22.1444 33.7381 22.1373 33.7577 22.1326L33.7784 22.1277L33.7817 22.1268C33.7816 22.1269 33.7819 22.1268 33.7817 22.1268C34.2637 22.0068 34.7526 22.2997 34.8731 22.7817C34.9937 23.2639 34.7005 23.7526 34.2183 23.8731L34 23C34.2183 23.8731 34.2185 23.8731 34.2183 23.8731L34.2134 23.8743L34.2041 23.8766L34.1725 23.8842C34.1456 23.8905 34.1072 23.8995 34.0576 23.9106C33.9582 23.9328 33.8137 23.9637 33.6259 24.0004C33.2505 24.0739 32.7022 24.1705 31.9966 24.2667C30.5856 24.4591 28.5448 24.65 26 24.65C23.4552 24.65 21.4144 24.4591 20.0034 24.2667C19.2978 24.1705 18.7495 24.0739 18.3741 24.0004C18.1863 23.9637 18.0418 23.9328 17.9424 23.9106C17.8928 23.8995 17.8544 23.8905 17.8275 23.8842L17.7959 23.8766L17.7866 23.8743L17.7836 23.8736L17.7825 23.8733C17.7823 23.8733 17.7817 23.8731 18 23L17.7825 23.8733C17.3003 23.7528 17.0063 23.2639 17.1269 22.7817ZM18.2183 22.1268C18.218 22.1268 18.2182 22.1268 18.2183 22.1268V22.1268Z" fill="#2D66EE"/>
<path d="M35 28.5C35 29.3284 34.3284 30 33.5 30H33V31.2C33 31.48 33 31.62 33.0545 31.727C33.1024 31.8211 33.1789 31.8975 33.273 31.9455C33.38 32 33.52 32 33.8 32H34.2C34.48 32 34.62 32 34.727 31.9455C34.8211 31.8975 34.8976 31.8211 34.9455 31.727C35 31.62 35 31.48 35 31.2V28.5Z" fill="#2D66EE"/>
<path fill-rule="evenodd" clip-rule="evenodd" d="M34.1 31.1H33.9V30.8668C33.9677 30.8554 34.0344 30.8413 34.1 30.8244V31.1ZM35.9 28.5V31.2C35.9 31.2073 35.9 31.2146 35.9 31.2221C35.9 31.3423 35.9001 31.4806 35.8902 31.6017C35.8788 31.7407 35.8501 31.9341 35.7474 32.1356C35.6132 32.399 35.399 32.6132 35.1356 32.7474C34.9341 32.8501 34.7407 32.8788 34.6017 32.8902C34.4806 32.9001 34.3423 32.9 34.2221 32.9C34.2147 32.9 34.2073 32.9 34.2 32.9H33.8C33.7927 32.9 33.7853 32.9 33.7779 32.9C33.6577 32.9 33.5194 32.9001 33.3983 32.8902C33.2593 32.8788 33.0659 32.8501 32.8644 32.7474C32.601 32.6132 32.3868 32.399 32.2526 32.1356C32.1499 31.9341 32.1212 31.7407 32.1098 31.6017C32.0999 31.4806 32.1 31.3423 32.1 31.2221C32.1 31.2146 32.1 31.2073 32.1 31.2V29.1H33.5C33.8314 29.1 34.1 28.8313 34.1 28.5H35.9Z" fill="#2D66EE"/>
<path d="M17 28.5C17 29.3284 17.6716 30 18.5 30H19V31.2C19 31.48 19 31.62 18.9455 31.727C18.8976 31.8211 18.8211 31.8975 18.727 31.9455C18.62 32 18.48 32 18.2 32H17.8C17.52 32 17.38 32 17.273 31.9455C17.1789 31.8975 17.1024 31.8211 17.0545 31.727C17 31.62 17 31.48 17 31.2V28.5Z" fill="#2D66EE"/>
<path fill-rule="evenodd" clip-rule="evenodd" d="M17.9 31.1H18.1V30.8668C18.0323 30.8554 17.9656 30.8413 17.9 30.8244V31.1ZM16.1 28.5V31.2C16.1 31.2073 16.1 31.2146 16.1 31.2221C16.1 31.3423 16.0999 31.4806 16.1098 31.6017C16.1212 31.7407 16.1499 31.9341 16.2526 32.1356C16.3868 32.399 16.601 32.6132 16.8644 32.7474C17.0659 32.8501 17.2593 32.8788 17.3983 32.8902C17.5194 32.9001 17.6577 32.9 17.7779 32.9C17.7853 32.9 17.7927 32.9 17.8 32.9H18.2C18.2073 32.9 18.2147 32.9 18.2221 32.9C18.3423 32.9 18.4806 32.9001 18.6017 32.8902C18.7407 32.8788 18.9341 32.8501 19.1356 32.7474C19.399 32.6132 19.6132 32.399 19.7474 32.1356C19.8501 31.9341 19.8788 31.7407 19.8902 31.6017C19.9001 31.4806 19.9 31.3423 19.9 31.2221C19.9 31.2146 19.9 31.2073 19.9 31.2V29.1H18.5C18.1686 29.1 17.9 28.8313 17.9 28.5H16.1Z" fill="#2D66EE"/>
<path fill-rule="evenodd" clip-rule="evenodd" d="M23.6623 16.1H28.3377C29.2008 16.1 29.9166 16.0999 30.5047 16.1608C31.124 16.2248 31.6776 16.3619 32.1962 16.6824C32.7149 17.003 33.0851 17.4368 33.4193 17.9621C33.7368 18.461 34.0569 19.1012 34.4428 19.8732L35.9 22.7875V30.9H16.1V22.7875L17.5572 19.8732C17.9431 19.1012 18.2632 18.461 18.5807 17.9621C18.9149 17.4368 19.2851 17.003 19.8038 16.6824C20.3224 16.3619 20.876 16.2248 21.4953 16.1608C22.0834 16.0999 22.7992 16.1 23.6623 16.1ZM21.6804 17.9512C21.2164 17.9992 20.9564 18.0861 20.7501 18.2136C20.5437 18.3411 20.3498 18.5348 20.0993 18.9284C19.8377 19.3396 19.5583 19.8958 19.1466 20.7192L17.9 23.2124V29.1H34.1V23.2124L32.8534 20.7192C32.4417 19.8958 32.1623 19.3396 31.9007 18.9284C31.6502 18.5348 31.4563 18.3411 31.2499 18.2136C31.0436 18.0861 30.7836 17.9992 30.3196 17.9512C29.8348 17.9011 29.2124 17.9 28.2918 17.9H23.7082C22.7876 17.9 22.1652 17.9011 21.6804 17.9512Z" fill="#2D66EE"/>
<path fill-rule="evenodd" clip-rule="evenodd" d="M15 22.6144V22.3851C15 21.8963 15.3963 21.5 15.8852 21.5H18V23L17.6373 23.7254C17.5489 23.9023 17.3986 24.0406 17.2149 24.114C16.154 24.5384 15 23.757 15 22.6144ZM37 22.6144V22.3851C37 21.8963 36.6037 21.5 36.1148 21.5H34V23L34.3627 23.7254C34.4511 23.9023 34.6014 24.0406 34.7851 24.114C35.846 24.5384 37 23.757 37 22.6144Z" fill="#2D66EE"/>
<path fill-rule="evenodd" clip-rule="evenodd" d="M19.107 26.3883C19.1686 25.8951 19.6184 25.5453 20.1116 25.6069L22.1116 25.8569C22.6048 25.9186 22.9547 26.3684 22.8931 26.8616C22.8314 27.3548 22.3816 27.7047 21.8884 27.643L19.8884 27.393C19.3952 27.3314 19.0453 26.8816 19.107 26.3883Z" fill="#2D66EE"/>
<path fill-rule="evenodd" clip-rule="evenodd" d="M32.8931 26.3883C32.8314 25.8951 32.3816 25.5453 31.8884 25.6069L29.8884 25.8569C29.3952 25.9186 29.0453 26.3684 29.107 26.8616C29.1686 27.3548 29.6184 27.7047 30.1116 27.643L32.1116 27.393C32.6048 27.3314 32.9547 26.8816 32.8931 26.3883Z" fill="#2D66EE"/>
</g>
<defs>
<filter id="filter0_d_64_745" x="0" y="0" width="52" height="52" filterUnits="userSpaceOnUse" color-interpolation-filters="sRGB">
<feFlood flood-opacity="0" result="BackgroundImageFix"/>
<feColorMatrix in="SourceAlpha" type="matrix" values="0 0 0 0 0 0 0 0 0 0 0 0 0 0 0 0 0 0 127 0" result="hardAlpha"/>
<feOffset dy="2"/>
<feGaussianBlur stdDeviation="2"/>
<feColorMatrix type="matrix" values="0 0 0 0 0 0 0 0 0 0 0 0 0 0 0 0 0 0 0.08 0"/>
<feBlend mode="normal" in2="BackgroundImageFix" result="effect1_dropShadow_64_745"/>
<feBlend mode="normal" in="SourceGraphic" in2="effect1_dropShadow_64_745" result="shape"/>
</filter>
</defs>
</svg>
