<svg width="52" height="52" viewBox="0 0 52 52" fill="none" xmlns="http://www.w3.org/2000/svg">
<g filter="url(#filter0_d_64_728)">
<rect x="4" y="2" width="44" height="44" rx="22" fill="white"/>
<path fill-rule="evenodd" clip-rule="evenodd" d="M25.7282 16.8358C25.9111 16.788 26.1032 16.7881 26.2861 16.8361C26.4521 16.8797 26.6322 16.9942 27.3822 17.5545L33.5552 22.1648C33.9534 22.4622 34.5174 22.3805 34.8148 21.9822C35.1122 21.584 35.0305 21.02 34.6323 20.7226L28.4593 16.1123L28.3445 16.0264C27.7737 15.5989 27.2942 15.2398 26.7434 15.0952C26.2613 14.9685 25.7547 14.9683 25.2725 15.0945C24.7215 15.2387 24.2417 15.5972 23.6704 16.0242L23.5556 16.11L17.3683 20.7221C16.9698 21.0192 16.8876 21.5831 17.1846 21.9816C17.4817 22.3801 18.0456 22.4623 18.4441 22.1653L24.6314 17.5532C25.3819 16.9937 25.5622 16.8793 25.7282 16.8358ZM26.9 22.8906C26.9 22.3935 26.497 21.9906 26 21.9906C25.5029 21.9906 25.1 22.3935 25.1 22.8906V31.1004H22.9V22.8929C22.9 22.3959 22.497 21.9929 22 21.9929C21.5029 21.9929 21.1 22.3959 21.1 22.8929V31.1004H17.9023C17.4053 31.1004 17.0023 31.5033 17.0023 32.0004C17.0023 32.4974 17.4053 32.9004 17.9023 32.9004H34.0976C34.5947 32.9004 34.9976 32.4974 34.9976 32.0004C34.9976 31.5033 34.5947 31.1004 34.0976 31.1004H30.9V22.8929C30.9 22.3959 30.497 21.9929 30 21.9929C29.5029 21.9929 29.1 22.3959 29.1 22.8929V31.1004H26.9V22.8906Z" fill="#2D66EE"/>
</g>
<defs>
<filter id="filter0_d_64_728" x="0" y="0" width="52" height="52" filterUnits="userSpaceOnUse" color-interpolation-filters="sRGB">
<feFlood flood-opacity="0" result="BackgroundImageFix"/>
<feColorMatrix in="SourceAlpha" type="matrix" values="0 0 0 0 0 0 0 0 0 0 0 0 0 0 0 0 0 0 127 0" result="hardAlpha"/>
<feOffset dy="2"/>
<feGaussianBlur stdDeviation="2"/>
<feColorMatrix type="matrix" values="0 0 0 0 0 0 0 0 0 0 0 0 0 0 0 0 0 0 0.08 0"/>
<feBlend mode="normal" in2="BackgroundImageFix" result="effect1_dropShadow_64_728"/>
<feBlend mode="normal" in="SourceGraphic" in2="effect1_dropShadow_64_728" result="shape"/>
</filter>
</defs>
</svg>
