<svg width="46" height="46" viewBox="0 0 46 46" fill="none" xmlns="http://www.w3.org/2000/svg">
<path d="M43.25 9.5H38V2.75C37.9982 2.15381 37.7606 1.58255 37.339 1.16098C36.9175 0.739405 36.3462 0.501781 35.75 0.5H10.25C9.65381 0.501781 9.08255 0.739405 8.66098 1.16098C8.2394 1.58255 8.00178 2.15381 8 2.75V9.5H2.75C2.15381 9.50178 1.58255 9.7394 1.16098 10.161C0.739405 10.5825 0.501781 11.1538 0.5 11.75V35.75C0.501781 36.3462 0.739405 36.9175 1.16098 37.339C1.58255 37.7606 2.15381 37.9982 2.75 38H17.615L17.1125 41H14.75C14.6337 41.0008 14.5192 41.0283 14.4151 41.0803C14.3111 41.1323 14.2204 41.2075 14.15 41.3L11.9 44.3C11.8166 44.412 11.766 44.545 11.7541 44.6841C11.7422 44.8233 11.7693 44.963 11.8325 45.0875C11.8932 45.2125 11.9882 45.3176 12.1064 45.3906C12.2246 45.4637 12.3611 45.5016 12.5 45.5H33.5C33.6389 45.5016 33.7754 45.4637 33.8936 45.3906C34.0118 45.3176 34.1068 45.2125 34.1675 45.0875C34.2307 44.963 34.2578 44.8233 34.2459 44.6841C34.234 44.545 34.1834 44.412 34.1 44.3L31.85 41.3C31.7796 41.2075 31.6889 41.1323 31.5849 41.0803C31.4809 41.0283 31.3663 41.0008 31.25 41H28.8875L28.385 38H43.25C43.8462 37.9982 44.4175 37.7606 44.839 37.339C45.2606 36.9175 45.4982 36.3462 45.5 35.75V11.75C45.4982 11.1538 45.2606 10.5825 44.839 10.161C44.4175 9.7394 43.8462 9.50178 43.25 9.5ZM9.5 2.75C9.5 2.55109 9.57902 2.36032 9.71967 2.21967C9.86032 2.07902 10.0511 2 10.25 2H35.75C35.9489 2 36.1397 2.07902 36.2803 2.21967C36.421 2.36032 36.5 2.55109 36.5 2.75V6.5H9.5V2.75ZM9.5 8H36.5V25.25C36.5 25.4489 36.421 25.6397 36.2803 25.7803C36.1397 25.921 35.9489 26 35.75 26H10.25C10.0511 26 9.86032 25.921 9.71967 25.7803C9.57902 25.6397 9.5 25.4489 9.5 25.25V8ZM30.875 42.5L32 44H14L15.125 42.5H30.875ZM18.635 41L19.1375 38H26.8625L27.365 41H18.635ZM44 35.75C44 35.9489 43.921 36.1397 43.7803 36.2803C43.6397 36.421 43.4489 36.5 43.25 36.5H2.75C2.55109 36.5 2.36032 36.421 2.21967 36.2803C2.07902 36.1397 2 35.9489 2 35.75V33.5H44V35.75ZM44 32H2V11.75C2 11.5511 2.07902 11.3603 2.21967 11.2197C2.36032 11.079 2.55109 11 2.75 11H8V25.25C8.00178 25.8462 8.2394 26.4175 8.66098 26.839C9.08255 27.2606 9.65381 27.4982 10.25 27.5H13.25V29H8V30.5H14C14.1989 30.5 14.3897 30.421 14.5303 30.2803C14.671 30.1397 14.75 29.9489 14.75 29.75V27.5H19.25V30.5H20.75V27.5H25.25V30.5H26.75V27.5H31.25V29.75C31.25 29.9489 31.329 30.1397 31.4697 30.2803C31.6103 30.421 31.8011 30.5 32 30.5H38V29H32.75V27.5H35.75C36.3462 27.4982 36.9175 27.2606 37.339 26.839C37.7606 26.4175 37.9982 25.8462 38 25.25V11H43.25C43.4489 11 43.6397 11.079 43.7803 11.2197C43.921 11.3603 44 11.5511 44 11.75V32Z" fill="#2D66EE"/>
<path d="M33.5 3.5H35V5H33.5V3.5Z" fill="#2D66EE"/>
<path d="M30.5 3.5H32V5H30.5V3.5Z" fill="#2D66EE"/>
<path d="M27.5 3.5H29V5H27.5V3.5Z" fill="#2D66EE"/>
<path d="M18.7197 11.9697L14.2197 16.4697C14.079 16.6104 14.0001 16.8011 14.0001 17C14.0001 17.1989 14.079 17.3896 14.2197 17.5302L18.7197 22.0302L19.7802 20.9697L15.8104 17L19.7802 13.0302L18.7197 11.9697Z" fill="#2D66EE"/>
<path d="M27.2803 11.9697L26.2198 13.0302L30.1896 17L26.2198 20.9697L27.2803 22.0302L31.7803 17.5302C31.921 17.3896 31.9999 17.1989 31.9999 17C31.9999 16.8011 31.921 16.6104 31.7803 16.4697L27.2803 11.9697Z" fill="#2D66EE"/>
<path d="M20.0376 23.4998L24.5344 9.99501L25.9579 10.469L21.4611 23.9738L20.0376 23.4998Z" fill="#2D66EE"/>
</svg>
