<svg width="52" height="52" viewBox="0 0 52 52" fill="none" xmlns="http://www.w3.org/2000/svg">
<g filter="url(#filter0_d_64_732)">
<rect x="4" y="2" width="44" height="44" rx="22" fill="white"/>
<path fill-rule="evenodd" clip-rule="evenodd" d="M26.9 14C26.9 13.5029 26.497 13.1 26 13.1C25.5029 13.1 25.1 13.5029 25.1 14V14.1746C22.8052 14.5596 21.0012 16.3919 20.6587 18.7008L20.5893 18.6897C20.4507 18.6672 20.345 18.6487 20.2752 18.636C20.2403 18.6296 20.2144 18.6248 20.1978 18.6216L20.18 18.6181L20.1765 18.6175C19.6892 18.5202 19.2149 18.8362 19.1174 19.3235C19.02 19.8109 19.3361 20.285 19.8235 20.3825L19.8249 20.3828L19.8272 20.3832L19.8345 20.3847L19.86 20.3896C19.8817 20.3938 19.9129 20.3996 19.9532 20.4069C20.0338 20.4216 20.1508 20.4421 20.3012 20.4665C20.5603 20.5085 20.9188 20.5621 21.3617 20.6171C21.3539 20.7271 21.35 20.838 21.35 20.95C21.35 23.5189 23.431 25.6 26 25.6C28.5689 25.6 30.65 23.5189 30.65 20.95C30.65 20.838 30.646 20.7271 30.6383 20.6171C31.0812 20.5621 31.4397 20.5085 31.6987 20.4665C31.8491 20.4421 31.9661 20.4216 32.0467 20.4069C32.087 20.3996 32.1182 20.3938 32.14 20.3896L32.1654 20.3847L32.1728 20.3832L32.1751 20.3828L32.1762 20.3826C32.6636 20.2851 32.98 19.8109 32.8825 19.3235C32.785 18.8361 32.311 18.5201 31.8237 18.6174L31.8199 18.6181L31.8021 18.6216C31.7855 18.6248 31.7596 18.6296 31.7247 18.636C31.6549 18.6487 31.5492 18.6672 31.4106 18.6897L31.3412 18.7008C30.9987 16.3919 29.1947 14.5596 26.9 14.1746V14ZM25.1001 16.0134C25.1072 16.5042 25.5074 16.9 26 16.9C26.4926 16.9 26.8927 16.5042 26.8999 16.0134C28.272 16.3665 29.3275 17.5081 29.5545 18.9265C28.5923 19.0209 27.3752 19.1 26 19.1C24.6248 19.1 23.4077 19.0209 22.4454 18.9265C22.6725 17.5081 23.728 16.3665 25.1001 16.0134ZM23.1542 20.794C23.1514 20.8457 23.15 20.8976 23.15 20.95C23.15 22.5248 24.4252 23.8 26 23.8C27.5748 23.8 28.85 22.5248 28.85 20.95C28.85 20.8976 28.8486 20.8457 28.8458 20.794C28.0103 20.8561 27.049 20.9 26 20.9C24.9509 20.9 23.9896 20.8561 23.1542 20.794ZM19.9277 32.0808C19.8872 32.0459 19.8895 31.9615 19.8947 31.7647C19.897 31.6769 19.9 31.5667 19.9 31.4285C19.9 29.5359 22.6782 28.4 26 28.4C29.3218 28.4 32.1 29.5359 32.1 31.4285C32.1 31.5667 32.1029 31.6769 32.1052 31.7647C32.1105 31.9615 32.1127 32.0459 32.0723 32.0808C32.0419 32.107 31.9876 32.1053 31.8924 32.1024C31.8561 32.1013 31.8138 32.1 31.7647 32.1H20.2353C20.1861 32.1 20.1439 32.1013 20.1076 32.1024C20.0124 32.1053 19.958 32.107 19.9277 32.0808ZM26 26.6C21.7728 26.6 18.1 28.1017 18.1 31.4285C18.1 33.1641 18.7855 33.9 20.2353 33.9H31.7647C33.2144 33.9 33.9 33.1641 33.9 31.4285C33.9 28.1017 30.2272 26.6 26 26.6Z" fill="#2D66EE"/>
</g>
<defs>
<filter id="filter0_d_64_732" x="0" y="0" width="52" height="52" filterUnits="userSpaceOnUse" color-interpolation-filters="sRGB">
<feFlood flood-opacity="0" result="BackgroundImageFix"/>
<feColorMatrix in="SourceAlpha" type="matrix" values="0 0 0 0 0 0 0 0 0 0 0 0 0 0 0 0 0 0 127 0" result="hardAlpha"/>
<feOffset dy="2"/>
<feGaussianBlur stdDeviation="2"/>
<feColorMatrix type="matrix" values="0 0 0 0 0 0 0 0 0 0 0 0 0 0 0 0 0 0 0.08 0"/>
<feBlend mode="normal" in2="BackgroundImageFix" result="effect1_dropShadow_64_732"/>
<feBlend mode="normal" in="SourceGraphic" in2="effect1_dropShadow_64_732" result="shape"/>
</filter>
</defs>
</svg>
