<svg width="52" height="52" viewBox="0 0 52 52" fill="none" xmlns="http://www.w3.org/2000/svg">
<g filter="url(#filter0_d_64_741)">
<rect x="4" y="2" width="44" height="44" rx="22" fill="white"/>
<path fill-rule="evenodd" clip-rule="evenodd" d="M17.9622 20.8956L24.4171 17.2218C25.3984 16.6633 26.6015 16.6633 27.5828 17.2218L34.0377 20.8956C34.0704 20.9142 34.0795 20.9288 34.0838 20.9367C34.091 20.9495 34.0983 20.9713 34.0983 20.9998C34.0983 21.0284 34.091 21.0502 34.0838 21.063C34.0795 21.0708 34.0704 21.0855 34.0377 21.1041L27.5828 24.7779C26.6015 25.3364 25.3984 25.3364 24.4171 24.7779L17.9622 21.1041C17.9295 21.0855 17.9204 21.0708 17.9161 21.063C17.9089 21.0502 17.9016 21.0284 17.9016 20.9998C17.9016 20.9713 17.9089 20.9495 17.9161 20.9367C17.9204 20.9288 17.9295 20.9142 17.9622 20.8956ZM17.0719 22.6685C15.7781 21.9322 15.7781 20.0675 17.0719 19.3312L23.5268 15.6574C25.0601 14.7848 26.9398 14.7848 28.4732 15.6574L34.928 19.3312C35.5742 19.699 35.8977 20.3483 35.8983 20.9979L35.9 20.9999V25.0999C35.9 25.597 35.497 25.9999 35 25.9999C34.5029 25.9999 34.1 25.597 34.1 25.0999V23.1398L28.4731 26.3423C26.9398 27.2149 25.0601 27.2149 23.5268 26.3422L17.0719 22.6685Z" fill="#3F8AE0"/>
<path fill-rule="evenodd" clip-rule="evenodd" d="M31.2 23.0999V25.1083C31.2 26.5233 31.1994 27.5304 31.1349 28.319C31.0713 29.0971 30.9502 29.5829 30.7532 29.9696C30.3601 30.7411 29.7329 31.3683 28.9614 31.7614C28.5747 31.9585 28.0889 32.0796 27.3108 32.1431C26.9314 32.1741 26.5015 32.1904 26 32.1989V33.9991C26.5434 33.9902 27.0262 33.9724 27.4573 33.9372C28.3467 33.8645 29.0958 33.7131 29.7786 33.3652C30.8888 32.7996 31.7913 31.897 32.357 30.7868C32.7049 30.104 32.8563 29.355 32.9289 28.4655C33.0001 27.5951 33.0001 26.5145 33 25.148V23.0999H31.2Z" fill="#3F8AE0"/>
<path fill-rule="evenodd" clip-rule="evenodd" d="M20.9001 23.0999V25.1099C20.9001 26.5249 20.9008 27.532 20.9652 28.3206C21.0288 29.0987 21.1499 29.5845 21.347 29.9713C21.7401 30.7427 22.3673 31.3699 23.1387 31.763C23.5255 31.9601 24.0113 32.0812 24.7894 32.1448C25.1432 32.1737 25.541 32.19 26 32.1989V33.9991C25.4971 33.9897 25.0473 33.9718 24.6428 33.9388C23.7534 33.8661 23.0044 33.7147 22.3216 33.3668C21.2114 32.8012 20.3088 31.8986 19.7432 30.7884C19.3953 30.1056 19.2439 29.3566 19.1712 28.4672C19.1001 27.5967 19.1001 26.5161 19.1001 25.1497V23.0999H20.9001Z" fill="#3F8AE0"/>
</g>
<defs>
<filter id="filter0_d_64_741" x="0" y="0" width="52" height="52" filterUnits="userSpaceOnUse" color-interpolation-filters="sRGB">
<feFlood flood-opacity="0" result="BackgroundImageFix"/>
<feColorMatrix in="SourceAlpha" type="matrix" values="0 0 0 0 0 0 0 0 0 0 0 0 0 0 0 0 0 0 127 0" result="hardAlpha"/>
<feOffset dy="2"/>
<feGaussianBlur stdDeviation="2"/>
<feColorMatrix type="matrix" values="0 0 0 0 0 0 0 0 0 0 0 0 0 0 0 0 0 0 0.08 0"/>
<feBlend mode="normal" in2="BackgroundImageFix" result="effect1_dropShadow_64_741"/>
<feBlend mode="normal" in="SourceGraphic" in2="effect1_dropShadow_64_741" result="shape"/>
</filter>
</defs>
</svg>
