<svg width="52" height="52" viewBox="0 0 52 52" fill="none" xmlns="http://www.w3.org/2000/svg">
<g filter="url(#filter0_d_64_724)">
<rect x="4" y="2" width="44" height="44" rx="22" fill="white"/>
<path fill-rule="evenodd" clip-rule="evenodd" d="M18.9996 16.9996C20.7902 15.2091 23.2664 14.1 26 14.1C28.7335 14.1 31.2098 15.2091 33.0003 16.9996C34.7909 18.7902 35.9 21.2664 35.9 24C35.9 26.7335 34.7909 29.2098 33.0003 31.0003C31.2098 32.7909 28.7335 33.9 26 33.9C23.2664 33.9 20.7902 32.7909 18.9996 31.0003C17.2091 29.2098 16.1 26.7335 16.1 24C16.1 21.2664 17.2091 18.7902 18.9996 16.9996ZM26.8997 32C26.8997 29.8665 26.149 27.9083 24.8973 26.3752L26.4997 24.7728L31.5894 29.8624C30.339 31.055 28.7095 31.8508 26.8996 32.0506L26.8997 32ZM25.0997 32C25.0997 30.3638 24.5463 28.8568 23.6163 27.6562L20.9439 30.3286C22.1095 31.2612 23.5373 31.8779 25.0996 32.0505L25.0997 32ZM17.9997 24.9C19.6359 24.9 21.1429 25.4534 22.3435 26.3834L19.6711 29.0558C18.7386 27.8902 18.122 26.4624 17.9494 24.9001L17.9997 24.9ZM26.4997 22.2272L28.1022 20.6248C27.0289 19.3103 26.324 17.6833 26.1448 15.9012C26.0966 15.9004 26.0484 15.9 26 15.9C24.3439 15.9 22.8047 16.3963 21.5218 17.2492L26.4997 22.2272ZM31.0558 17.6711L29.3831 19.3438C28.6751 18.4296 28.1852 17.3378 27.9918 16.1465C29.1277 16.4336 30.1678 16.9607 31.0558 17.6711ZM33.8534 22.0079C32.6621 21.8145 31.5702 21.3247 30.6559 20.6166L32.3286 18.9439C33.0391 19.8319 33.5662 20.872 33.8534 22.0079ZM27.7725 23.5L29.375 21.8976C30.6895 22.9708 32.3166 23.6758 34.0987 23.8549C34.0996 23.9032 34.1 23.9515 34.1 24C34.1 25.6561 33.6036 27.1953 32.7507 28.4781L27.7725 23.5ZM23.6245 25.1024L25.2269 23.5L20.1375 18.4105C18.945 19.6609 18.1492 21.2903 17.9493 23.1001L17.9997 23.1C20.1333 23.1 22.0914 23.8507 23.6245 25.1024Z" fill="#2D66EE"/>
</g>
<defs>
<filter id="filter0_d_64_724" x="0" y="0" width="52" height="52" filterUnits="userSpaceOnUse" color-interpolation-filters="sRGB">
<feFlood flood-opacity="0" result="BackgroundImageFix"/>
<feColorMatrix in="SourceAlpha" type="matrix" values="0 0 0 0 0 0 0 0 0 0 0 0 0 0 0 0 0 0 127 0" result="hardAlpha"/>
<feOffset dy="2"/>
<feGaussianBlur stdDeviation="2"/>
<feColorMatrix type="matrix" values="0 0 0 0 0 0 0 0 0 0 0 0 0 0 0 0 0 0 0.08 0"/>
<feBlend mode="normal" in2="BackgroundImageFix" result="effect1_dropShadow_64_724"/>
<feBlend mode="normal" in="SourceGraphic" in2="effect1_dropShadow_64_724" result="shape"/>
</filter>
</defs>
</svg>
