<svg width="52" height="52" viewBox="0 0 52 52" fill="none" xmlns="http://www.w3.org/2000/svg">
<g filter="url(#filter0_d_64_736)">
<rect x="4" y="2" width="44" height="44" rx="22" fill="white"/>
<g clip-path="url(#clip0_64_736)">
<path d="M31.1231 16.2C34.0274 16.2 35.9537 18.035 37.0158 21.0755C37.7255 23.1071 38 25.4728 38 27.8142C38 31.2212 37.1631 32.5714 34.6096 32.5714C33.3559 32.5714 32.4952 31.7779 30.972 29.8119C29.7533 28.239 29.2902 27.75 29.1308 27.75H22.8692C22.6738 27.75 22.0344 28.3659 20.8353 29.8148L20.819 29.8345C19.0371 31.9877 18.4347 32.5714 17.3904 32.5714C14.8369 32.5714 14 31.2212 14 27.8142C14 25.4728 14.2745 23.1071 14.9842 21.0755C16.0463 18.035 17.9726 16.2 20.8769 16.2H31.1231ZM31.1231 18H20.8769C17.2695 18 15.8 22.2065 15.8 27.8142C15.8 30.3537 16.0589 30.7714 17.3904 30.7714C17.5816 30.7714 18.2161 30.1565 19.4323 28.6869L19.4486 28.6671C21.1993 26.5518 21.824 25.95 22.8692 25.95H29.1308C30.1958 25.95 30.5317 26.3046 32.3949 28.7094C33.5176 30.1586 34.1823 30.7714 34.6096 30.7714C35.9411 30.7714 36.2 30.3537 36.2 27.8142C36.2 22.2065 34.7305 18 31.1231 18ZM21.14 19.7142C21.4572 19.7142 21.7143 19.9714 21.7143 20.2885L21.7137 21.4282L22.8543 21.4285C23.1715 21.4285 23.4286 21.6856 23.4286 22.0028V22.5685C23.4286 22.8857 23.1715 23.1428 22.8543 23.1428L21.7137 23.1422L21.7143 24.2828C21.7143 24.6 21.4572 24.8571 21.14 24.8571H20.5743C20.2571 24.8571 20 24.6 20 24.2828L19.9997 23.1422L18.86 23.1428C18.5428 23.1428 18.2857 22.8857 18.2857 22.5685V22.0028C18.2857 21.6856 18.5428 21.4285 18.86 21.4285L19.9997 21.4282L20 20.2885C20 19.9714 20.2571 19.7142 20.5743 19.7142H21.14ZM31.4257 23.1428C31.7429 23.1428 32 23.3999 32 23.7171V24.2828C32 24.6 31.7429 24.8571 31.4257 24.8571H30.86C30.5428 24.8571 30.2857 24.6 30.2857 24.2828V23.7171C30.2857 23.3999 30.5428 23.1428 30.86 23.1428H31.4257ZM29.7114 21.4285C30.0286 21.4285 30.2857 21.6856 30.2857 22.0028V22.5685C30.2857 22.8857 30.0286 23.1428 29.7114 23.1428H29.1457C28.8285 23.1428 28.5714 22.8857 28.5714 22.5685V22.0028C28.5714 21.6856 28.8285 21.4285 29.1457 21.4285H29.7114ZM33.14 21.4285C33.4572 21.4285 33.7143 21.6856 33.7143 22.0028V22.5685C33.7143 22.8857 33.4572 23.1428 33.14 23.1428H32.5743C32.2571 23.1428 32 22.8857 32 22.5685V22.0028C32 21.6856 32.2571 21.4285 32.5743 21.4285H33.14ZM31.4257 19.7142C31.7429 19.7142 32 19.9714 32 20.2885V20.8542C32 21.1714 31.7429 21.4285 31.4257 21.4285H30.86C30.5428 21.4285 30.2857 21.1714 30.2857 20.8542V20.2885C30.2857 19.9714 30.5428 19.7142 30.86 19.7142H31.4257Z" fill="#2D66EE"/>
</g>
</g>
<defs>
<filter id="filter0_d_64_736" x="0" y="0" width="52" height="52" filterUnits="userSpaceOnUse" color-interpolation-filters="sRGB">
<feFlood flood-opacity="0" result="BackgroundImageFix"/>
<feColorMatrix in="SourceAlpha" type="matrix" values="0 0 0 0 0 0 0 0 0 0 0 0 0 0 0 0 0 0 127 0" result="hardAlpha"/>
<feOffset dy="2"/>
<feGaussianBlur stdDeviation="2"/>
<feColorMatrix type="matrix" values="0 0 0 0 0 0 0 0 0 0 0 0 0 0 0 0 0 0 0.08 0"/>
<feBlend mode="normal" in2="BackgroundImageFix" result="effect1_dropShadow_64_736"/>
<feBlend mode="normal" in="SourceGraphic" in2="effect1_dropShadow_64_736" result="shape"/>
</filter>
<clipPath id="clip0_64_736">
<rect width="24" height="24" fill="white" transform="translate(14 12)"/>
</clipPath>
</defs>
</svg>
