<svg width="40" height="46" viewBox="0 0 40 46" fill="none" xmlns="http://www.w3.org/2000/svg">
<path d="M20 13.2498C20.5933 13.2498 21.1734 13.0738 21.6667 12.7442C22.1601 12.4145 22.5446 11.946 22.7716 11.3978C22.9987 10.8496 23.0581 10.2464 22.9424 9.66449C22.8266 9.08254 22.5409 8.54799 22.1213 8.12844C21.7018 7.70888 21.1672 7.42316 20.5853 7.3074C20.0033 7.19165 19.4001 7.25106 18.852 7.47812C18.3038 7.70518 17.8352 8.0897 17.5056 8.58305C17.1759 9.07639 17 9.65641 17 10.2498C17 11.0454 17.3161 11.8085 17.8787 12.3711C18.4413 12.9337 19.2044 13.2498 20 13.2498ZM20 8.74976C20.2967 8.74976 20.5867 8.83773 20.8334 9.00255C21.08 9.16738 21.2723 9.40164 21.3858 9.67573C21.4994 9.94982 21.5291 10.2514 21.4712 10.5424C21.4133 10.8334 21.2704 11.1006 21.0607 11.3104C20.8509 11.5202 20.5836 11.6631 20.2926 11.7209C20.0017 11.7788 19.7001 11.7491 19.426 11.6356C19.1519 11.522 18.9176 11.3298 18.7528 11.0831C18.588 10.8364 18.5 10.5464 18.5 10.2498C18.5 9.85193 18.658 9.4704 18.9393 9.1891C19.2206 8.90779 19.6022 8.74976 20 8.74976Z" fill="#2D66EE"/>
<path d="M19.25 20.7498H20.75V22.2498H19.25V20.7498Z" fill="#2D66EE"/>
<path d="M19.25 23.7498H20.75V28.9998H19.25V23.7498Z" fill="#2D66EE"/>
<path d="M39.2375 41.2773C39.1677 41.1913 39.0797 41.1218 38.9799 41.0738C38.88 41.0258 38.7708 41.0005 38.66 40.9998H38V20.7498C38 20.5509 37.921 20.3601 37.7803 20.2195C37.6397 20.0788 37.4489 19.9998 37.25 19.9998H32.51L31.9925 16.1523C31.9775 16.0312 31.9327 15.9157 31.862 15.8162C31.7913 15.7167 31.697 15.6363 31.5875 15.5823L27.47 13.5198C27.1925 6.4473 20.765 0.912305 20.4875 0.679805C20.3517 0.563608 20.1788 0.499756 20 0.499756C19.8212 0.499756 19.6484 0.563608 19.5125 0.679805C19.235 0.912305 12.8075 6.4473 12.53 13.5198L8.41251 15.5823C8.30306 15.6363 8.20875 15.7167 8.13806 15.8162C8.06736 15.9157 8.0225 16.0312 8.00751 16.1523L7.49001 19.9998H2.75001C2.5511 19.9998 2.36034 20.0788 2.21968 20.2195C2.07903 20.3601 2.00001 20.5509 2.00001 20.7498V40.9998H1.34001C1.22923 41.0005 1.11999 41.0258 1.02014 41.0738C0.920286 41.1218 0.832303 41.1913 0.762513 41.2773C0.691501 41.3641 0.641108 41.4659 0.615126 41.5751C0.589145 41.6842 0.588251 41.7978 0.612513 41.9073L1.26501 44.9073C1.3011 45.0753 1.3938 45.2258 1.52759 45.3337C1.66139 45.4416 1.82816 45.5002 2.00001 45.4998H38C38.1719 45.5002 38.3386 45.4416 38.4724 45.3337C38.6062 45.2258 38.6989 45.0753 38.735 44.9073L39.3875 41.9073C39.4118 41.7978 39.4109 41.6842 39.3849 41.5751C39.3589 41.4659 39.3085 41.3641 39.2375 41.2773ZM27.4625 15.1923L30.56 16.7448L31.895 26.7498H30.245L28.19 21.9573C28.1326 21.8217 28.0366 21.7061 27.9139 21.6247C27.7912 21.5434 27.6472 21.4999 27.5 21.4998H26.2475C26.9645 19.4696 27.374 17.3436 27.4625 15.1923ZM20 2.26981C21.5075 3.7023 26 8.4648 26 13.9998C26.057 16.9286 25.4385 19.8311 24.1925 22.4823C23.54 19.6848 21.935 17.7498 20 17.7498C18.065 17.7498 16.46 19.6848 15.8075 22.4823C14.5615 19.8311 13.9431 16.9286 14 13.9998C14 8.4723 18.4925 3.7098 20 2.26981ZM20 30.9873C19.0475 30.0798 17 27.8148 17 25.2498C17 21.7173 18.5825 19.2498 20 19.2498C21.4175 19.2498 23 21.7173 23 25.2498C23 27.8148 20.9525 30.0798 20 30.9873ZM27.5 30.4998V37.9998H12.5V30.4998H17.5475C18.1341 31.261 18.7976 31.9597 19.5275 32.5848C19.6618 32.6916 19.8284 32.7498 20 32.7498C20.1716 32.7498 20.3382 32.6916 20.4725 32.5848C21.2024 31.9597 21.8659 31.261 22.4525 30.4998H27.5ZM9.44001 16.7448L12.5375 15.1923C12.626 17.3436 13.0356 19.4696 13.7525 21.4998H12.5C12.3528 21.4999 12.2089 21.5434 12.0862 21.6247C11.9635 21.7061 11.8674 21.8217 11.81 21.9573L9.75501 26.7498H8.10501L9.44001 16.7448ZM3.50001 21.4998H7.29501L6.50751 27.4023C6.4936 27.5082 6.50247 27.6158 6.53351 27.718C6.56455 27.8202 6.61706 27.9145 6.68751 27.9948C6.75719 28.0755 6.84358 28.1401 6.94071 28.1842C7.03784 28.2282 7.14337 28.2506 7.25001 28.2498H10.25C10.3972 28.2497 10.5412 28.2062 10.6639 28.1249C10.7866 28.0435 10.8826 27.9279 10.94 27.7923L12.995 22.9998H14.3825C14.7018 23.6487 15.0809 24.2664 15.515 24.8448C15.5075 24.9798 15.5 25.1148 15.5 25.2498C15.5306 26.569 15.8944 27.859 16.5575 28.9998H11.75C11.5511 28.9998 11.3603 29.0788 11.2197 29.2195C11.079 29.3601 11 29.5509 11 29.7498V38.7498C11 38.9487 11.079 39.1395 11.2197 39.2801C11.3603 39.4208 11.5511 39.4998 11.75 39.4998H28.25C28.4489 39.4998 28.6397 39.4208 28.7803 39.2801C28.921 39.1395 29 38.9487 29 38.7498V29.7498C29 29.5509 28.921 29.3601 28.7803 29.2195C28.6397 29.0788 28.4489 28.9998 28.25 28.9998H23.4425C24.1056 27.859 24.4694 26.569 24.5 25.2498C24.5 25.1148 24.4925 24.9798 24.485 24.8448C24.9191 24.2664 25.2982 23.6487 25.6175 22.9998H27.005L29.06 27.7923C29.1174 27.9279 29.2135 28.0435 29.3362 28.1249C29.4589 28.2062 29.6028 28.2497 29.75 28.2498H32.75C32.8567 28.2506 32.9622 28.2282 33.0593 28.1842C33.1564 28.1401 33.2428 28.0755 33.3125 27.9948C33.383 27.9145 33.4355 27.8202 33.4665 27.718C33.4976 27.6158 33.5064 27.5082 33.4925 27.4023L32.705 21.4998H36.5V40.9998H22.25C22.0511 40.9998 21.8603 41.0788 21.7197 41.2195C21.579 41.3601 21.5 41.5509 21.5 41.7498H18.5C18.5 41.5509 18.421 41.3601 18.2803 41.2195C18.1397 41.0788 17.9489 40.9998 17.75 40.9998H3.50001V21.4998ZM37.4 43.9998H2.60001L2.27751 42.4998H17C17 42.6987 17.079 42.8895 17.2197 43.0301C17.3603 43.1708 17.5511 43.2498 17.75 43.2498H22.25C22.4489 43.2498 22.6397 43.1708 22.7803 43.0301C22.921 42.8895 23 42.6987 23 42.4998H37.7225L37.4 43.9998Z" fill="#2D66EE"/>
<path d="M30.5 31.9998H35V33.4998H30.5V31.9998Z" fill="#2D66EE"/>
<path d="M31.25 39.4998H34.25C34.4489 39.4998 34.6397 39.4207 34.7803 39.2801C34.921 39.1394 35 38.9487 35 38.7498V35.7498C35 35.5508 34.921 35.3601 34.7803 35.2194C34.6397 35.0788 34.4489 34.9998 34.25 34.9998H31.25C31.0511 34.9998 30.8603 35.0788 30.7197 35.2194C30.579 35.3601 30.5 35.5508 30.5 35.7498V38.7498C30.5 38.9487 30.579 39.1394 30.7197 39.2801C30.8603 39.4207 31.0511 39.4998 31.25 39.4998ZM32 36.4998H33.5V37.9998H32V36.4998Z" fill="#2D66EE"/>
<path d="M5 31.9998H9.5V33.4998H5V31.9998Z" fill="#2D66EE"/>
<path d="M8.75 34.9998H5.75C5.55109 34.9998 5.36032 35.0788 5.21967 35.2194C5.07902 35.3601 5 35.5508 5 35.7498V38.7498C5 38.9487 5.07902 39.1394 5.21967 39.2801C5.36032 39.4207 5.55109 39.4998 5.75 39.4998H8.75C8.94891 39.4998 9.13968 39.4207 9.28033 39.2801C9.42098 39.1394 9.5 38.9487 9.5 38.7498V35.7498C9.5 35.5508 9.42098 35.3601 9.28033 35.2194C9.13968 35.0788 8.94891 34.9998 8.75 34.9998ZM8 37.9998H6.5V36.4998H8V37.9998Z" fill="#2D66EE"/>
<path d="M29 5H30.5V3.5H32V2H30.5V0.5H29V2H27.5V3.5H29V5Z" fill="#2D66EE"/>
<path d="M35 9.5H36.5V8H38V6.5H36.5V5H35V6.5H33.5V8H35V9.5Z" fill="#2D66EE"/>
<path d="M9.5 5H11V3.5H12.5V2H11V0.5H9.5V2H8V3.5H9.5V5Z" fill="#2D66EE"/>
<path d="M3.5 9.5H5V8H6.5V6.5H5V5H3.5V6.5H2V8H3.5V9.5Z" fill="#2D66EE"/>
</svg>
