<svg width="20" height="16" viewBox="0 0 20 16" fill="none" xmlns="http://www.w3.org/2000/svg">
<path fill-rule="evenodd" clip-rule="evenodd" d="M5.79998 0.100006H5.76228H5.76225C4.95421 0.0999965 4.29336 0.0999884 3.75629 0.143869C3.20038 0.189289 2.6983 0.286171 2.22941 0.525082C1.49558 0.898988 0.898957 1.49561 0.525051 2.22944C0.28614 2.69833 0.189258 3.20041 0.143838 3.75632C0.0999575 4.2934 0.0999658 4.95424 0.0999759 5.76229V5.76231V5.80001V10.2V10.2377V10.2377C0.0999658 11.0458 0.0999575 11.7066 0.143838 12.2437C0.189258 12.7996 0.28614 13.3017 0.525051 13.7706C0.898957 14.5044 1.49558 15.101 2.22941 15.4749C2.6983 15.7138 3.20038 15.8107 3.75629 15.8561C4.29337 15.9 4.95422 15.9 5.76227 15.9H5.79998H14.2H14.2377C15.0457 15.9 15.7066 15.9 16.2437 15.8561C16.7996 15.8107 17.3017 15.7138 17.7705 15.4749C18.5044 15.101 19.101 14.5044 19.4749 13.7706C19.7138 13.3017 19.8107 12.7996 19.8561 12.2437C19.9 11.7066 19.9 11.0458 19.9 10.2377V10.2V5.80001V5.7623C19.9 4.95425 19.9 4.2934 19.8561 3.75632C19.8107 3.20041 19.7138 2.69833 19.4749 2.22944C19.101 1.49561 18.5044 0.898988 17.7705 0.525082C17.3017 0.286171 16.7996 0.189289 16.2437 0.143869C15.7066 0.0999884 15.0457 0.0999965 14.2377 0.100006H14.2377H14.2H5.79998ZM3.38061 2.01217C3.51618 1.98082 3.68477 1.95571 3.90287 1.93789C4.35798 1.90071 4.94505 1.90001 5.79998 1.90001H14.2C15.0549 1.90001 15.642 1.90071 16.0971 1.93789C16.3152 1.95571 16.4838 1.98082 16.6193 2.01217L12.6103 5.52009C12.0325 6.02567 11.6369 6.37103 11.3074 6.61738C10.987 6.85699 10.7832 6.96055 10.6069 7.0127C10.2107 7.12984 9.78921 7.12984 9.3931 7.0127C9.21676 6.96055 9.01295 6.85699 8.69253 6.61738C8.3631 6.37103 7.96747 6.02568 7.38967 5.52009L3.38061 2.01217ZM2.05037 3.24C2.00084 3.39568 1.96243 3.60224 1.93786 3.9029C1.90068 4.35801 1.89998 4.94508 1.89998 5.80001V10.2C1.89998 11.0549 1.90068 11.642 1.93786 12.0971C1.97419 12.5417 2.04079 12.7805 2.12886 12.9534C2.3302 13.3485 2.65146 13.6698 3.0466 13.8711C3.21944 13.9592 3.45827 14.0258 3.90287 14.0621C4.35798 14.0993 4.94505 14.1 5.79998 14.1H14.2C15.0549 14.1 15.642 14.0993 16.0971 14.0621C16.5417 14.0258 16.7805 13.9592 16.9534 13.8711C17.3485 13.6698 17.6698 13.3485 17.8711 12.9534C17.9592 12.7805 18.0258 12.5417 18.0621 12.0971C18.0993 11.642 18.1 11.0549 18.1 10.2V5.80001C18.1 4.94508 18.0993 4.35801 18.0621 3.9029C18.0375 3.60224 17.9991 3.39568 17.9496 3.24L13.7956 6.87473L13.7694 6.89767C13.2242 7.37468 12.7768 7.76621 12.3854 8.05889C11.9787 8.36299 11.5796 8.6021 11.1173 8.7388C10.388 8.95447 9.61192 8.95447 8.88265 8.7388C8.4204 8.6021 8.02121 8.36299 7.61455 8.05889C7.22317 7.76622 6.77574 7.37471 6.23062 6.89771L6.20436 6.87473L2.05037 3.24Z" fill="#2D66EE"/>
</svg>
