<svg width="17" height="20" viewBox="0 0 17 20" fill="none" xmlns="http://www.w3.org/2000/svg">
<path fill-rule="evenodd" clip-rule="evenodd" d="M9.10001 1.90021H6.60001C5.60506 1.90021 4.91298 1.90091 4.3745 1.94491C3.84653 1.98804 3.54596 2.06828 3.31963 2.18359C2.83041 2.43286 2.43266 2.83061 2.18339 3.31984C2.06807 3.54616 1.98784 3.84673 1.9447 4.37471C1.90071 4.91319 1.90001 5.60527 1.90001 6.60021V13.4002C1.90001 14.3952 1.90071 15.0872 1.9447 15.6257C1.98784 16.1537 2.06807 16.4543 2.18339 16.6806C2.43266 17.1698 2.83041 17.5676 3.31963 17.8168C3.54596 17.9321 3.84653 18.0124 4.3745 18.0555C4.91298 18.0995 5.60506 18.1002 6.60001 18.1002H10.4C11.3949 18.1002 12.087 18.0995 12.6255 18.0555C13.1535 18.0124 13.4541 17.9321 13.6804 17.8168C14.1696 17.5676 14.5674 17.1698 14.8166 16.6806C14.9319 16.4543 15.0122 16.1537 15.0553 15.6257C15.0993 15.0872 15.1 14.3952 15.1 13.4002V7.90021H13.2L13.1646 7.90021C12.6347 7.90023 12.1836 7.90024 11.8131 7.86997C11.424 7.83818 11.0454 7.76854 10.6834 7.58413C10.1378 7.3061 9.69412 6.86245 9.41609 6.31678C9.23167 5.95485 9.16204 5.57625 9.13024 5.18709C9.09998 4.81666 9.09999 4.36548 9.10001 3.83561L9.10001 3.80021V1.90021ZM14.3272 6.10021L10.9 2.673V3.80021C10.9 4.37511 10.9007 4.75216 10.9243 5.04052C10.947 5.31836 10.9863 5.43371 11.0199 5.4996C11.1254 5.70658 11.2936 5.87486 11.5006 5.98032C11.5665 6.01389 11.6819 6.05325 11.9597 6.07595C12.2481 6.09951 12.6251 6.10021 13.2 6.10021H14.3272ZM10.439 0.166523C10.1595 0.0994266 9.87272 0.0997805 9.5731 0.100153L9.50589 0.10021H6.60001H6.5616C5.6141 0.100201 4.84835 0.100194 4.22792 0.150884C3.58864 0.203116 3.02482 0.313621 2.50245 0.57978C1.67454 1.00162 1.00142 1.67474 0.579578 2.50265C0.313419 3.02502 0.202912 3.58884 0.15068 4.22813C0.09999 4.84855 0.0999973 5.6143 0.100006 6.5618V6.60021V13.4002V13.4386C0.0999973 14.3861 0.0999899 15.1519 0.15068 15.7723C0.202912 16.4116 0.313419 16.9754 0.579578 17.4978C1.00142 18.3257 1.67454 18.9988 2.50245 19.4206C3.02482 19.6868 3.58864 19.7973 4.22792 19.8495C4.84835 19.9002 5.6141 19.9002 6.5616 19.9002H6.60001H10.4H10.4384C11.3859 19.9002 12.1517 19.9002 12.7721 19.8495C13.4114 19.7973 13.9752 19.6868 14.4976 19.4206C15.3255 18.9988 15.9986 18.3257 16.4204 17.4978C16.6866 16.9754 16.7971 16.4116 16.8493 15.7723C16.9 15.1519 16.9 14.3861 16.9 13.4386V13.4002V7.49432L16.9001 7.42712C16.9004 7.12749 16.9008 6.84074 16.8337 6.56126C16.7749 6.31637 16.6779 6.08227 16.5463 5.86753C16.3962 5.62247 16.1932 5.41996 15.981 5.20836L15.9335 5.16087L11.8393 1.06676L11.7919 1.0192C11.5803 0.807067 11.3777 0.604049 11.1327 0.453874C10.9179 0.322285 10.6838 0.225315 10.439 0.166523Z" fill="#98A2B3"/>
</svg>
