<svg width="20" height="18" viewBox="0 0 20 18" fill="none" xmlns="http://www.w3.org/2000/svg">
<path fill-rule="evenodd" clip-rule="evenodd" d="M9.16458 0.100098H9.19998H10.8H10.8354H10.8354C11.3653 0.100084 11.8164 0.100072 12.1869 0.130337C12.576 0.162133 12.9546 0.231767 13.3166 0.416181C13.8622 0.694213 14.3059 1.13786 14.5839 1.68353C14.7683 2.04546 14.8379 2.42405 14.8697 2.81321C14.8988 3.1685 14.8999 3.59807 14.9 4.1001H15.8L15.8354 4.1001C16.3652 4.10008 16.8164 4.10007 17.1869 4.13034C17.576 4.16213 17.9546 4.23177 18.3166 4.41618C18.8622 4.69421 19.3059 5.13786 19.5839 5.68353C19.7683 6.04546 19.8379 6.42405 19.8697 6.81321C19.9 7.18364 19.9 7.6348 19.9 8.16465V8.16467V8.16469V8.2001V9.6001V9.63344C19.9 10.0249 19.9 10.3714 19.8766 10.6586C19.8516 10.9644 19.7956 11.2812 19.6384 11.5897C19.4083 12.0413 19.0411 12.4084 18.5896 12.6385C18.3617 12.7546 18.1292 12.8155 17.9 12.8495V13.4001V13.4362C17.9 14.0355 17.9 14.5391 17.8663 14.9512C17.8311 15.382 17.7547 15.7915 17.5567 16.1802C17.2546 16.7729 16.7728 17.2548 16.18 17.5568C15.7914 17.7548 15.3819 17.8313 14.9511 17.8665C14.539 17.9001 14.0355 17.9001 13.4362 17.9001H13.4361L13.4 17.9001H6.59998L6.56384 17.9001H6.56374C5.9645 17.9001 5.46096 17.9001 5.04889 17.8665C4.61805 17.8313 4.20858 17.7548 3.81991 17.5568C3.2272 17.2548 2.74531 16.7729 2.44331 16.1802C2.24527 15.7915 2.16882 15.382 2.13362 14.9512C2.09995 14.5391 2.09996 14.0355 2.09998 13.4362L2.09998 13.4001V12.8495C1.87077 12.8155 1.63829 12.7546 1.4104 12.6385C0.958812 12.4084 0.591659 12.0413 0.361563 11.5897C0.204397 11.2812 0.148387 10.9644 0.123404 10.6586C0.0999433 10.3714 0.0999589 10.025 0.0999765 9.63348V9.63343L0.0999786 9.6001V8.2001L0.0999765 8.1647V8.16464C0.0999631 7.63479 0.0999517 7.18363 0.130216 6.81321C0.162012 6.42405 0.231646 6.04546 0.41606 5.68353C0.694093 5.13786 1.13774 4.69421 1.68341 4.41618C2.04534 4.23177 2.42393 4.16213 2.81309 4.13034C3.18353 4.10007 3.63471 4.10008 4.16458 4.1001L4.19998 4.1001H5.09998C5.10001 3.59807 5.10119 3.1685 5.13022 2.81321C5.16201 2.42405 5.23165 2.04546 5.41606 1.68353C5.69409 1.13786 6.13774 0.694213 6.68341 0.416181C7.04534 0.231767 7.42393 0.162133 7.81309 0.130337C8.18352 0.100072 8.63469 0.100084 9.16455 0.100098H9.16458ZM3.39998 11.1001H16.6C17.0349 11.1001 17.3069 11.0994 17.5119 11.0827C17.7064 11.0668 17.76 11.041 17.7724 11.0347C17.8853 10.9772 17.9771 10.8854 18.0346 10.7725C18.0409 10.7601 18.0666 10.7065 18.0825 10.512C18.0993 10.307 18.1 10.035 18.1 9.6001V8.2001C18.1 7.6252 18.0993 7.24815 18.0757 6.95979C18.053 6.68194 18.0137 6.5666 17.9801 6.50071C17.8746 6.29373 17.7063 6.12545 17.4994 6.01999C17.4335 5.98642 17.3181 5.94706 17.0403 5.92436C16.7519 5.9008 16.3749 5.9001 15.8 5.9001H14.9V5.90011H14H5.99998H5.09998V5.9001H4.19998C3.62508 5.9001 3.24803 5.9008 2.95967 5.92436C2.68182 5.94706 2.56648 5.98642 2.50059 6.01999C2.29361 6.12545 2.12533 6.29373 2.01987 6.50071C1.9863 6.5666 1.94694 6.68194 1.92424 6.95979C1.90068 7.24815 1.89998 7.6252 1.89998 8.2001V9.6001C1.89998 10.035 1.90068 10.307 1.91743 10.512C1.93331 10.7065 1.95905 10.7601 1.96537 10.7725C2.0229 10.8854 2.11469 10.9772 2.22758 11.0347C2.24 11.041 2.2936 11.0668 2.48807 11.0827C2.69305 11.0994 2.96509 11.1001 3.39998 11.1001ZM3.89998 12.9001V13.4001C3.89998 14.045 3.90068 14.4746 3.92764 14.8046C3.95375 15.1241 3.99992 15.2704 4.04712 15.363C4.17655 15.617 4.38307 15.8235 4.63709 15.953C4.72972 16.0002 4.87594 16.0463 5.19547 16.0724C5.52551 16.0994 5.95507 16.1001 6.59998 16.1001H13.4C14.0449 16.1001 14.4744 16.0994 14.8045 16.0724C15.124 16.0463 15.2702 16.0002 15.3629 15.953C15.6169 15.8235 15.8234 15.617 15.9528 15.363C16 15.2704 16.0462 15.1241 16.0723 14.8046C16.0993 14.4746 16.1 14.045 16.1 13.4001V12.9001H3.89998ZM13.0757 2.95979C13.0979 3.23108 13.0998 3.58088 13.1 4.1001H6.89999C6.90014 3.58088 6.90207 3.23108 6.92424 2.95979C6.94694 2.68194 6.9863 2.5666 7.01987 2.50071C7.12533 2.29373 7.29361 2.12545 7.50059 2.01999C7.56648 1.98642 7.68182 1.94706 7.95967 1.92436C8.24802 1.9008 8.62508 1.9001 9.19998 1.9001H10.8C11.3749 1.9001 11.7519 1.9008 12.0403 1.92436C12.3181 1.94706 12.4335 1.98642 12.4994 2.01999C12.7063 2.12545 12.8746 2.29373 12.9801 2.50071C13.0137 2.5666 13.053 2.68194 13.0757 2.95979Z" fill="#2D66EE"/>
</svg>
