<svg width="14" height="20" viewBox="0 0 14 20" fill="none" xmlns="http://www.w3.org/2000/svg">
<path fill-rule="evenodd" clip-rule="evenodd" d="M6.18001 1.89997H7.82C8.9138 1.89997 9.6259 1.90138 10.1693 1.94577C10.6916 1.98845 10.8976 2.06172 11.008 2.11796C11.3843 2.30971 11.6903 2.61567 11.882 2.99199C11.9383 3.10238 12.0115 3.30838 12.0542 3.83072C12.0986 4.37408 12.1 5.08617 12.1 6.17998V13.82C12.1 14.9138 12.0986 15.6259 12.0542 16.1693C12.0115 16.6916 11.9383 16.8976 11.882 17.008C11.6903 17.3843 11.3843 17.6903 11.008 17.882C10.8976 17.9383 10.6916 18.0115 10.1693 18.0542C9.6259 18.0986 8.9138 18.1 7.82 18.1H6.18001C5.08621 18.1 4.37411 18.0986 3.83075 18.0542C3.30841 18.0115 3.10242 17.9383 2.99203 17.882C2.6157 17.6903 2.30974 17.3843 2.11799 17.008C2.06175 16.8976 1.98848 16.6916 1.9458 16.1693C1.90141 15.6259 1.90001 14.9138 1.90001 13.82V6.17997C1.90001 5.08617 1.90141 4.37408 1.9458 3.83072C1.98848 3.30838 2.06175 3.10239 2.11799 2.99199C2.30974 2.61567 2.6157 2.30971 2.99203 2.11796C3.10242 2.06172 3.30841 1.98845 3.83075 1.94577C4.37411 1.90138 5.08621 1.89997 6.18001 1.89997ZM0.100006 6.17997C0.100006 4.05177 0.100006 2.98768 0.514181 2.17481C0.8785 1.4598 1.45983 0.878469 2.17484 0.514151C2.98771 0.0999754 4.05181 0.0999756 6.18001 0.0999756H7.82C9.9482 0.0999756 11.0123 0.0999754 11.8252 0.514151C12.5402 0.878469 13.1215 1.4598 13.4858 2.17481C13.9 2.98768 13.9 4.05178 13.9 6.17998V13.82C13.9 15.9482 13.9 17.0123 13.4858 17.8252C13.1215 18.5402 12.5402 19.1215 11.8252 19.4858C11.0123 19.9 9.9482 19.9 7.82 19.9H6.18001C4.05181 19.9 2.98771 19.9 2.17484 19.4858C1.45983 19.1215 0.8785 18.5402 0.514181 17.8252C0.100006 17.0123 0.100006 15.9482 0.100006 13.82V6.17997ZM6.25 14.2C5.75294 14.2 5.35 14.6029 5.35 15.1C5.35 15.597 5.75294 16 6.25 16H7.75C8.24706 16 8.65 15.597 8.65 15.1C8.65 14.6029 8.24706 14.2 7.75 14.2H6.25Z" fill="#2D66EE"/>
</svg>
