<svg width="52" height="52" viewBox="0 0 52 52" fill="none" xmlns="http://www.w3.org/2000/svg">
<g filter="url(#filter0_d_64_757)">
<rect x="4" y="2" width="44" height="44" rx="22" fill="white"/>
<path d="M26 13.1C28.7614 13.1 31 15.3386 31 18.1H31.0542C32.3915 18.1 32.8764 18.2392 33.3653 18.5007C33.8542 18.7621 34.2378 19.1458 34.4993 19.6347C34.7608 20.1236 34.9 20.6085 34.9 21.9458V26.8343C34.9 28.9234 34.6795 29.6959 34.2656 30.47C33.8516 31.2441 33.2441 31.8516 32.47 32.2655C31.6959 32.6795 30.9234 32.9 28.8344 32.9H23.1657C21.0766 32.9 20.3041 32.6795 19.53 32.2655C18.7559 31.8516 18.1484 31.2441 17.7344 30.47C17.3205 29.6959 17.1 28.9234 17.1 26.8343V21.9458C17.1 20.6085 17.2392 20.1236 17.5007 19.6347C17.7622 19.1458 18.1458 18.7621 18.6347 18.5007C19.1236 18.2392 19.6086 18.1 20.9458 18.1H21C21 15.3386 23.2386 13.1 26 13.1ZM31.2469 19.9007L20.9458 19.9C19.9983 19.9 19.7428 19.9493 19.4836 20.0879C19.3084 20.1816 19.1817 20.3084 19.088 20.4836C18.9494 20.7428 18.9 20.9983 18.9 21.9458V26.8343C18.9 28.4693 19.0105 29.0393 19.3217 29.6211C19.5679 30.0815 19.9185 30.4321 20.3789 30.6783C20.9607 30.9895 21.5306 31.1 23.1657 31.1H28.8344C30.4694 31.1 31.0393 30.9895 31.6211 30.6783C32.0815 30.4321 32.4321 30.0815 32.6783 29.6211C32.9895 29.0393 33.1 28.4693 33.1 26.8343V21.9458C33.1 20.9983 33.0507 20.7428 32.912 20.4836C32.8183 20.3084 32.6916 20.1816 32.5164 20.0879C32.2757 19.9592 32.0382 19.9075 31.2469 19.9007ZM29.946 21C30.1514 21 30.2941 21.0348 30.4163 21.1002C30.5385 21.1655 30.6345 21.2614 30.6998 21.3837C30.7652 21.5059 30.8 21.6486 30.8 21.854V21.946C30.8 22.1513 30.7652 22.2941 30.6998 22.4163C30.6345 22.5385 30.5385 22.6344 30.4163 22.6998C30.2941 22.7652 30.1514 22.8 29.946 22.8H29.854C29.6486 22.8 29.5059 22.7652 29.3837 22.6998C29.2615 22.6344 29.1655 22.5385 29.1002 22.4163C29.0348 22.2941 29 22.1513 29 21.946V21.854C29 21.6486 29.0348 21.5059 29.1002 21.3837C29.1655 21.2614 29.2615 21.1655 29.3837 21.1002C29.5059 21.0348 29.6486 21 29.854 21H29.946ZM21.946 21C22.1514 21 22.2941 21.0348 22.4163 21.1002C22.5385 21.1655 22.6345 21.2614 22.6998 21.3837C22.7652 21.5059 22.8 21.6486 22.8 21.854V21.946C22.8 22.1513 22.7652 22.2941 22.6998 22.4163C22.6345 22.5385 22.5385 22.6344 22.4163 22.6998C22.2941 22.7652 22.1514 22.8 21.946 22.8H21.854C21.6486 22.8 21.5059 22.7652 21.3837 22.6998C21.2615 22.6344 21.1655 22.5385 21.1002 22.4163C21.0348 22.2941 21 22.1513 21 21.946V21.854C21 21.6486 21.0348 21.5059 21.1002 21.3837C21.1655 21.2614 21.2615 21.1655 21.3837 21.1002C21.5059 21.0348 21.6486 21 21.854 21H21.946ZM26 14.9C24.2327 14.9 22.8 16.3327 22.8 18.1H29.2C29.2 16.3327 27.7673 14.9 26 14.9Z" fill="#2D66EE"/>
</g>
<defs>
<filter id="filter0_d_64_757" x="0" y="0" width="52" height="52" filterUnits="userSpaceOnUse" color-interpolation-filters="sRGB">
<feFlood flood-opacity="0" result="BackgroundImageFix"/>
<feColorMatrix in="SourceAlpha" type="matrix" values="0 0 0 0 0 0 0 0 0 0 0 0 0 0 0 0 0 0 127 0" result="hardAlpha"/>
<feOffset dy="2"/>
<feGaussianBlur stdDeviation="2"/>
<feColorMatrix type="matrix" values="0 0 0 0 0 0 0 0 0 0 0 0 0 0 0 0 0 0 0.08 0"/>
<feBlend mode="normal" in2="BackgroundImageFix" result="effect1_dropShadow_64_757"/>
<feBlend mode="normal" in="SourceGraphic" in2="effect1_dropShadow_64_757" result="shape"/>
</filter>
</defs>
</svg>
