<svg width="52" height="52" viewBox="0 0 52 52" fill="none" xmlns="http://www.w3.org/2000/svg">
<g filter="url(#filter0_d_64_749)">
<rect x="4" y="2" width="44" height="44" rx="22" fill="white"/>
<path d="M29.5 19.5C29.9971 19.5 30.4 19.9029 30.4 20.4V21.1H31.1C31.5971 21.1 32 21.5029 32 22C32 22.4971 31.5971 22.9 31.1 22.9H30.4V23.6C30.4 24.0971 29.9971 24.5 29.5 24.5C29.0029 24.5 28.6 24.0971 28.6 23.6V22.9H27.9C27.4029 22.9 27 22.4971 27 22C27 21.5029 27.4029 21.1 27.9 21.1H28.6V20.4C28.6 19.9029 29.0029 19.5 29.5 19.5Z" fill="#2D66EE"/>
<path fill-rule="evenodd" clip-rule="evenodd" d="M26.111 17.6995C27.2389 16.6433 28.5405 16.0698 29.9918 16.006L30.2656 16C33.4228 16 36 18.5603 36 21.7172C36 24.676 34.9647 26.144 30.4269 29.7784L29.4937 30.5182L27.1296 32.3607C26.4655 32.8783 25.5345 32.8783 24.8704 32.3607L22.1824 30.263C17.1273 26.2688 16 24.8046 16 21.7172C16 18.5603 18.5772 16 21.7344 16C23.2746 16 24.6626 16.5761 25.8723 17.695L25.994 17.813L26.111 17.6995ZM34.2 21.7172C34.2 19.557 32.4314 17.8 30.2656 17.8C28.9087 17.8 27.7389 18.4156 26.702 19.7081C26.3441 20.1543 25.6662 20.1577 25.3038 19.7152C24.2408 18.4176 23.0673 17.8 21.7344 17.8C19.5686 17.8 17.8 19.557 17.8 21.7172C17.8 23.9668 18.5968 25.0977 22.739 28.4066L23.6128 29.0984L25.9769 30.941C25.9905 30.9515 26.0095 30.9515 26.0231 30.941L28.686 28.8631C33.1332 25.352 34.1192 24.1674 34.1951 22.0108L34.2 21.7172Z" fill="#2D66EE"/>
</g>
<defs>
<filter id="filter0_d_64_749" x="0" y="0" width="52" height="52" filterUnits="userSpaceOnUse" color-interpolation-filters="sRGB">
<feFlood flood-opacity="0" result="BackgroundImageFix"/>
<feColorMatrix in="SourceAlpha" type="matrix" values="0 0 0 0 0 0 0 0 0 0 0 0 0 0 0 0 0 0 127 0" result="hardAlpha"/>
<feOffset dy="2"/>
<feGaussianBlur stdDeviation="2"/>
<feColorMatrix type="matrix" values="0 0 0 0 0 0 0 0 0 0 0 0 0 0 0 0 0 0 0.08 0"/>
<feBlend mode="normal" in2="BackgroundImageFix" result="effect1_dropShadow_64_749"/>
<feBlend mode="normal" in="SourceGraphic" in2="effect1_dropShadow_64_749" result="shape"/>
</filter>
</defs>
</svg>
