<svg width="52" height="52" viewBox="0 0 52 52" fill="none" xmlns="http://www.w3.org/2000/svg">
<g filter="url(#filter0_d_64_774)">
<rect x="4" y="2" width="44" height="44" rx="22" fill="white"/>
<path d="M19.3737 20.3967C19.1997 20.4887 19.0114 20.3004 19.1034 20.1264L20.0952 18.25L19.1034 16.3737C19.0114 16.1996 19.1997 16.0114 19.3737 16.1034L21.25 17.0952L23.1264 16.1034C23.3004 16.0114 23.4887 16.1996 23.3967 16.3737L22.4048 18.25L23.3967 20.1264C23.4887 20.3004 23.3004 20.4887 23.1264 20.3967L21.25 19.4048L19.3737 20.3967Z" fill="#2D66EE"/>
<path d="M31.25 18.9048L29.3737 19.8967C29.1997 19.9887 29.0114 19.8004 29.1034 19.6264L30.0952 17.75L29.1034 15.8737C29.0114 15.6996 29.1997 15.5114 29.3737 15.6034L31.25 16.5952L33.1264 15.6034C33.3004 15.5114 33.4887 15.6996 33.3967 15.8737L32.4048 17.75L33.3967 19.6264C33.4887 19.8004 33.3004 19.9887 33.1264 19.8967L31.25 18.9048Z" fill="#2D66EE"/>
<path d="M29.3737 29.3967C29.1997 29.4887 29.0114 29.3004 29.1034 29.1264L30.0952 27.25L29.1034 25.3737C29.0114 25.1996 29.1997 25.0114 29.3737 25.1034L31.25 26.0952L33.1264 25.1034C33.3004 25.0114 33.4887 25.1996 33.3967 25.3737L32.4048 27.25L33.3967 29.1264C33.4887 29.3004 33.3004 29.4887 33.1264 29.3967L31.25 28.4048L29.3737 29.3967Z" fill="#2D66EE"/>
<path fill-rule="evenodd" clip-rule="evenodd" d="M27.1364 22.3636C27.4879 22.7151 27.4879 23.285 27.1364 23.6364L17.6364 33.1364C17.2849 33.4879 16.7151 33.4879 16.3636 33.1364C16.0121 32.785 16.0121 32.2151 16.3636 31.8636L25.8636 22.3636C26.2151 22.0122 26.7849 22.0122 27.1364 22.3636Z" fill="#2D66EE"/>
</g>
<defs>
<filter id="filter0_d_64_774" x="0" y="0" width="52" height="52" filterUnits="userSpaceOnUse" color-interpolation-filters="sRGB">
<feFlood flood-opacity="0" result="BackgroundImageFix"/>
<feColorMatrix in="SourceAlpha" type="matrix" values="0 0 0 0 0 0 0 0 0 0 0 0 0 0 0 0 0 0 127 0" result="hardAlpha"/>
<feOffset dy="2"/>
<feGaussianBlur stdDeviation="2"/>
<feColorMatrix type="matrix" values="0 0 0 0 0 0 0 0 0 0 0 0 0 0 0 0 0 0 0.08 0"/>
<feBlend mode="normal" in2="BackgroundImageFix" result="effect1_dropShadow_64_774"/>
<feBlend mode="normal" in="SourceGraphic" in2="effect1_dropShadow_64_774" result="shape"/>
</filter>
</defs>
</svg>
