<svg width="52" height="52" viewBox="0 0 52 52" fill="none" xmlns="http://www.w3.org/2000/svg">
<g filter="url(#filter0_d_64_753)">
<rect x="4" y="2" width="44" height="44" rx="22" fill="white"/>
<path fill-rule="evenodd" clip-rule="evenodd" d="M19.626 14.7319C19.9775 14.3804 20.5473 14.3804 20.8988 14.7319L27.2163 21.0493C27.2327 21.0658 27.2483 21.0827 27.2632 21.1H33.6667C33.6885 21.1 33.7107 21.0999 33.7332 21.0999C33.9709 21.0992 34.2447 21.0985 34.4918 21.1647C35.1474 21.3404 35.6596 21.8526 35.8353 22.5082C35.9015 22.7553 35.9007 23.0291 35.9001 23.2667C35.9001 23.2893 35.9 23.3115 35.9 23.3333C35.9 23.3854 35.9 23.4368 35.9 23.4876C35.9003 24.8896 35.9004 25.7751 35.699 26.527C35.1872 28.437 33.756 29.9547 31.9 30.5857V31.02C31.9 31.0489 31.9 31.0777 31.9001 31.1063C31.9006 31.4645 31.901 31.7992 31.8246 32.0968C31.6069 32.9448 30.9448 33.6069 30.0969 33.8246C29.7992 33.901 29.4645 33.9005 29.1064 33.9001C29.0777 33.9 29.0489 33.9 29.02 33.9H22.98C22.9511 33.9 22.9223 33.9 22.8936 33.9001C22.5355 33.9005 22.2008 33.901 21.9031 33.8246C21.0552 33.6069 20.3931 32.9448 20.1754 32.0968C20.099 31.7992 20.0994 31.4645 20.0999 31.1063C20.1 31.0777 20.1 31.0489 20.1 31.02V30.5857C18.244 29.9547 16.8128 28.437 16.301 26.527C16.0996 25.7751 16.0997 24.8896 16.1 23.4876C16.1 23.4368 16.1 23.3854 16.1 23.3333C16.1 23.3115 16.0999 23.2893 16.0999 23.2667C16.0993 23.0291 16.0985 22.7553 16.1647 22.5082C16.3404 21.8526 16.8526 21.3404 17.5082 21.1647C17.7553 21.0985 18.0291 21.0992 18.2668 21.0999C18.2893 21.0999 18.3115 21.1 18.3333 21.1H20.4787L17.5047 18.126C17.1532 17.7745 17.1532 17.2047 17.5047 16.8532C17.8561 16.5017 18.426 16.5017 18.7775 16.8532L23.0243 21.1H24.7213L19.626 16.0047C19.2745 15.6532 19.2745 15.0833 19.626 14.7319ZM23.6667 29.1H28.3333C29.9412 29.1 30.5686 29.0923 31.0612 28.9603C32.476 28.5812 33.5812 27.476 33.9603 26.0611C34.0923 25.5686 34.1 24.9412 34.1 23.3333C34.1 23.1702 34.0998 23.0778 34.0967 23.0097C34.0956 22.9871 34.0945 22.9729 34.0937 22.965C34.0836 22.9379 34.0621 22.9164 34.035 22.9063C34.0271 22.9055 34.0129 22.9043 33.9903 22.9033C33.9222 22.9002 33.8298 22.9 33.6667 22.9H18.3333C18.1702 22.9 18.0778 22.9002 18.0097 22.9033C17.9871 22.9043 17.9729 22.9055 17.965 22.9063C17.9379 22.9164 17.9164 22.9379 17.9063 22.965C17.9055 22.9729 17.9044 22.9871 17.9033 23.0097C17.9002 23.0778 17.9 23.1702 17.9 23.3333C17.9 24.9412 17.9077 25.5686 18.0397 26.0611C18.4188 27.476 19.524 28.5812 20.9388 28.9603C21.4314 29.0923 22.0588 29.1 23.6667 29.1ZM21.9 30.9V31.02C21.9 31.5219 21.9071 31.6035 21.9189 31.6492C21.9733 31.8612 22.1388 32.0267 22.3508 32.0811C22.3964 32.0929 22.4781 32.1 22.98 32.1H29.02C29.5219 32.1 29.6036 32.0929 29.6492 32.0811C29.8612 32.0267 30.0267 31.8612 30.0812 31.6492C30.0929 31.6035 30.1 31.5219 30.1 31.02V30.9H28.7789C28.6843 30.9 28.5873 30.9 28.4876 30.9C28.4369 30.9 28.3855 30.9 28.3333 30.9H23.6667C23.6146 30.9 23.5631 30.9 23.5124 30.9C23.4127 30.9 23.3157 30.9 23.2211 30.9H21.9Z" fill="#2D66EE"/>
</g>
<defs>
<filter id="filter0_d_64_753" x="0" y="0" width="52" height="52" filterUnits="userSpaceOnUse" color-interpolation-filters="sRGB">
<feFlood flood-opacity="0" result="BackgroundImageFix"/>
<feColorMatrix in="SourceAlpha" type="matrix" values="0 0 0 0 0 0 0 0 0 0 0 0 0 0 0 0 0 0 127 0" result="hardAlpha"/>
<feOffset dy="2"/>
<feGaussianBlur stdDeviation="2"/>
<feColorMatrix type="matrix" values="0 0 0 0 0 0 0 0 0 0 0 0 0 0 0 0 0 0 0.08 0"/>
<feBlend mode="normal" in2="BackgroundImageFix" result="effect1_dropShadow_64_753"/>
<feBlend mode="normal" in="SourceGraphic" in2="effect1_dropShadow_64_753" result="shape"/>
</filter>
</defs>
</svg>
