<svg width="52" height="52" viewBox="0 0 52 52" fill="none" xmlns="http://www.w3.org/2000/svg">
<g filter="url(#filter0_d_64_720)">
<rect x="4" y="2" width="44" height="44" rx="22" fill="white"/>
<path d="M28.2977 13.4348C29.0301 13.6057 29.6748 13.978 30.189 14.5267C30.7103 15.083 31.0136 15.6724 31.34 16.8246L32.1309 19.769C32.2738 20.3025 31.9572 20.8508 31.4238 20.9937C30.8903 21.1367 30.342 20.8201 30.199 20.2866L29.4786 17.5979L29.366 17.1956C29.151 16.4671 28.9894 16.1715 28.7296 15.8942C28.4856 15.6339 28.1906 15.4635 27.8431 15.3824C27.4731 15.2961 27.1363 15.3039 26.3979 15.482L25.9932 15.5856L20.8657 16.9595C20.0117 17.1884 19.612 17.3542 19.3569 17.5427L19.296 17.5904L19.162 17.7085C18.9017 17.9525 18.7313 18.2476 18.6502 18.595C18.5566 18.9959 18.5736 19.3577 18.7979 20.2335L21.5214 30.4021L21.634 30.8043C21.849 31.5329 22.0106 31.8285 22.2704 32.1058C22.5143 32.3661 22.8094 32.5365 23.1569 32.6176C23.5581 32.7112 23.9022 32.6939 24.7642 32.4774C25.2999 32.3429 25.8432 32.6681 25.9777 33.2037C26.1122 33.7393 25.787 34.2826 25.2514 34.4172C24.1026 34.7057 23.4456 34.7387 22.7023 34.5652C21.9699 34.3943 21.3252 34.022 20.811 33.4733C20.2897 32.917 19.9864 32.3276 19.6599 31.1754L16.9216 20.9626C16.5669 19.6391 16.5169 18.9359 16.7025 18.1404C16.8545 17.4894 17.1655 16.9077 17.6327 16.4121L17.8152 16.2303L17.994 16.0725C18.4897 15.6609 19.0713 15.3882 20.0853 15.1001L20.3481 15.0277L25.4755 13.6538C26.799 13.2992 27.5023 13.2491 28.2977 13.4348ZM32.3684 23C34.3686 23 36 24.5915 36 26.5673C36 28.4763 35.2284 29.4183 32.2201 31.7009L30.8923 32.7084C30.3648 33.1087 29.6352 33.1087 29.1077 32.7084L27.7799 31.7009C24.7716 29.4183 24 28.4763 24 26.5673C24 24.5915 25.6314 23 27.6316 23C28.4608 23 29.2275 23.2237 29.914 23.6597L30 23.717L30.086 23.6597C30.7039 23.2673 31.3867 23.0469 32.1215 23.0067L32.3684 23Z" fill="#2D66EE"/>
</g>
<defs>
<filter id="filter0_d_64_720" x="0" y="0" width="52" height="52" filterUnits="userSpaceOnUse" color-interpolation-filters="sRGB">
<feFlood flood-opacity="0" result="BackgroundImageFix"/>
<feColorMatrix in="SourceAlpha" type="matrix" values="0 0 0 0 0 0 0 0 0 0 0 0 0 0 0 0 0 0 127 0" result="hardAlpha"/>
<feOffset dy="2"/>
<feGaussianBlur stdDeviation="2"/>
<feColorMatrix type="matrix" values="0 0 0 0 0 0 0 0 0 0 0 0 0 0 0 0 0 0 0.08 0"/>
<feBlend mode="normal" in2="BackgroundImageFix" result="effect1_dropShadow_64_720"/>
<feBlend mode="normal" in="SourceGraphic" in2="effect1_dropShadow_64_720" result="shape"/>
</filter>
</defs>
</svg>
