<svg width="52" height="52" viewBox="0 0 52 52" fill="none" xmlns="http://www.w3.org/2000/svg">
<g filter="url(#filter0_d_64_770)">
<rect x="4" y="2" width="44" height="44" rx="22" fill="white"/>
<path fill-rule="evenodd" clip-rule="evenodd" d="M25.1646 15.1H25.2H26.8H26.8354H26.8354C27.3653 15.1 27.8165 15.0999 28.1869 15.1302C28.5761 15.162 28.9546 15.2316 29.3166 15.4161C29.8623 15.6941 30.3059 16.1377 30.5839 16.6834C30.7683 17.0453 30.838 17.4239 30.8698 17.8131C30.8988 18.1684 30.9 18.5979 30.9 19.1H31.8L31.8354 19.1C32.3653 19.1 32.8165 19.0999 33.1869 19.1302C33.5761 19.162 33.9546 19.2316 34.3166 19.4161C34.8623 19.6941 35.3059 20.1377 35.5839 20.6834C35.7683 21.0453 35.838 21.4239 35.8698 21.8131C35.9 22.1835 35.9 22.6347 35.9 23.1645V23.1646V23.1646V23.2V24.6V24.6333C35.9 25.0248 35.9 25.3713 35.8766 25.6585C35.8516 25.9642 35.7956 26.2811 35.6384 26.5896C35.4083 27.0411 35.0412 27.4083 34.5896 27.6384C34.3617 27.7545 34.1292 27.8154 33.9 27.8494V28.4V28.4361C33.9 29.0354 33.9 29.539 33.8664 29.9511C33.8312 30.3819 33.7547 30.7914 33.5567 31.18C33.2547 31.7728 32.7728 32.2546 32.1801 32.5566C31.7914 32.7547 31.3819 32.8311 30.9511 32.8663C30.539 32.9 30.0355 32.9 29.4362 32.9H29.4362L29.4 32.9H22.6L22.5639 32.9H22.5638C21.9645 32.9 21.461 32.9 21.0489 32.8663C20.6181 32.8311 20.2086 32.7547 19.8199 32.5566C19.2272 32.2546 18.7453 31.7728 18.4433 31.18C18.2453 30.7914 18.1689 30.3819 18.1337 29.9511C18.1 29.539 18.1 29.0354 18.1 28.4361L18.1 28.4V27.8494C17.8708 27.8154 17.6383 27.7545 17.4104 27.6384C16.9588 27.4083 16.5917 27.0411 16.3616 26.5896C16.2044 26.2811 16.1484 25.9642 16.1234 25.6585C16.1 25.3713 16.1 25.0248 16.1 24.6334V24.6333L16.1 24.6V23.2L16.1 23.1646V23.1645C16.1 22.6347 16.1 22.1835 16.1302 21.8131C16.162 21.4239 16.2317 21.0453 16.4161 20.6834C16.6941 20.1377 17.1378 19.6941 17.6834 19.4161C18.0454 19.2316 18.424 19.162 18.8131 19.1302C19.1836 19.0999 19.6347 19.1 20.1646 19.1L20.2 19.1H21.1C21.1 18.5979 21.1012 18.1684 21.1302 17.8131C21.162 17.4239 21.2317 17.0453 21.4161 16.6834C21.6941 16.1377 22.1378 15.6941 22.6834 15.4161C23.0454 15.2316 23.424 15.162 23.8131 15.1302C24.1835 15.0999 24.6347 15.1 25.1646 15.1H25.1646ZM19.4 26.1H32.6C33.0349 26.1 33.3069 26.0993 33.5119 26.0825C33.7064 26.0666 33.76 26.0409 33.7724 26.0346C33.8853 25.9771 33.9771 25.8853 34.0346 25.7724C34.0409 25.76 34.0667 25.7064 34.0826 25.5119C34.0993 25.3069 34.1 25.0349 34.1 24.6V23.2C34.1 22.6251 34.0993 22.248 34.0758 21.9597C34.053 21.6818 34.0137 21.5665 33.9801 21.5006C33.8747 21.2936 33.7064 21.1253 33.4994 21.0199C33.4335 20.9863 33.3182 20.9469 33.0403 20.9242C32.752 20.9007 32.3749 20.9 31.8 20.9H30.9V20.9H30H22H21.1V20.9H20.2C19.6251 20.9 19.2481 20.9007 18.9597 20.9242C18.6819 20.9469 18.5665 20.9863 18.5006 21.0199C18.2936 21.1253 18.1254 21.2936 18.0199 21.5006C17.9863 21.5665 17.947 21.6818 17.9243 21.9597C17.9007 22.248 17.9 22.6251 17.9 23.2V24.6C17.9 25.0349 17.9007 25.3069 17.9175 25.5119C17.9333 25.7064 17.9591 25.76 17.9654 25.7724C18.0229 25.8853 18.1147 25.9771 18.2276 26.0346C18.24 26.0409 18.2936 26.0666 18.4881 26.0825C18.6931 26.0993 18.9651 26.1 19.4 26.1ZM19.9 27.9V28.4C19.9 29.0449 19.9007 29.4744 19.9277 29.8045C19.9538 30.124 20 30.2702 20.0472 30.3629C20.1766 30.6169 20.3831 30.8234 20.6371 30.9528C20.7298 31 20.876 31.0462 21.1955 31.0723C21.5255 31.0993 21.9551 31.1 22.6 31.1H29.4C30.0449 31.1 30.4745 31.0993 30.8045 31.0723C31.1241 31.0462 31.2703 31 31.3629 30.9528C31.6169 30.8234 31.8234 30.6169 31.9529 30.3629C32.0001 30.2702 32.0462 30.124 32.0723 29.8045C32.0993 29.4744 32.1 29.0449 32.1 28.4V27.9H19.9ZM29.0757 17.9597C29.0979 18.231 29.0998 18.5808 29.1 19.1H22.9C22.9002 18.5808 22.9021 18.231 22.9243 17.9597C22.947 17.6818 22.9863 17.5665 23.0199 17.5006C23.1254 17.2936 23.2936 17.1253 23.5006 17.0199C23.5665 16.9863 23.6819 16.9469 23.9597 16.9242C24.2481 16.9007 24.6251 16.9 25.2 16.9H26.8C27.3749 16.9 27.752 16.9007 28.0403 16.9242C28.3182 16.9469 28.4335 16.9863 28.4994 17.0199C28.7064 17.1253 28.8747 17.2936 28.9801 17.5006C29.0137 17.5665 29.053 17.6818 29.0757 17.9597Z" fill="#2D66EE"/>
</g>
<defs>
<filter id="filter0_d_64_770" x="0" y="0" width="52" height="52" filterUnits="userSpaceOnUse" color-interpolation-filters="sRGB">
<feFlood flood-opacity="0" result="BackgroundImageFix"/>
<feColorMatrix in="SourceAlpha" type="matrix" values="0 0 0 0 0 0 0 0 0 0 0 0 0 0 0 0 0 0 127 0" result="hardAlpha"/>
<feOffset dy="2"/>
<feGaussianBlur stdDeviation="2"/>
<feColorMatrix type="matrix" values="0 0 0 0 0 0 0 0 0 0 0 0 0 0 0 0 0 0 0.08 0"/>
<feBlend mode="normal" in2="BackgroundImageFix" result="effect1_dropShadow_64_770"/>
<feBlend mode="normal" in="SourceGraphic" in2="effect1_dropShadow_64_770" result="shape"/>
</filter>
</defs>
</svg>
