<svg width="52" height="52" viewBox="0 0 52 52" fill="none" xmlns="http://www.w3.org/2000/svg">
<g filter="url(#filter0_d_64_766)">
<rect x="4" y="2" width="44" height="44" rx="22" fill="white"/>
<path d="M21.25 27.75H22.25C22.6642 27.75 23 28.0858 23 28.5V29.5C23 29.9142 22.6642 30.25 22.25 30.25H21.25C20.8358 30.25 20.5 29.9142 20.5 29.5V28.5C20.5 28.0858 20.8358 27.75 21.25 27.75Z" fill="#2D66EE"/>
<path d="M29.75 27.75H30.75C31.1642 27.75 31.5 28.0858 31.5 28.5V29.5C31.5 29.9142 31.1642 30.25 30.75 30.25H29.75C29.3358 30.25 29 29.9142 29 29.5V28.5C29 28.0858 29.3358 27.75 29.75 27.75Z" fill="#2D66EE"/>
<path d="M21.25 22.75H22.25C22.6642 22.75 23 23.0858 23 23.5V24.5C23 24.9142 22.6642 25.25 22.25 25.25H21.25C20.8358 25.25 20.5 24.9142 20.5 24.5V23.5C20.5 23.0858 20.8358 22.75 21.25 22.75Z" fill="#2D66EE"/>
<path d="M29.75 22.75H30.75C31.1642 22.75 31.5 23.0858 31.5 23.5V24.5C31.5 24.9142 31.1642 25.25 30.75 25.25H29.75C29.3358 25.25 29 24.9142 29 24.5V23.5C29 23.0858 29.3358 22.75 29.75 22.75Z" fill="#2D66EE"/>
<path d="M21.25 17.75H22.25C22.6642 17.75 23 18.0858 23 18.5V19.5C23 19.9142 22.6642 20.25 22.25 20.25H21.25C20.8358 20.25 20.5 19.9142 20.5 19.5V18.5C20.5 18.0858 20.8358 17.75 21.25 17.75Z" fill="#2D66EE"/>
<path d="M29.75 17.75H30.75C31.1642 17.75 31.5 18.0858 31.5 18.5V19.5C31.5 19.9142 31.1642 20.25 30.75 20.25H29.75C29.3358 20.25 29 19.9142 29 19.5V18.5C29 18.0858 29.3358 17.75 29.75 17.75Z" fill="#2D66EE"/>
<path fill-rule="evenodd" clip-rule="evenodd" d="M23.4613 14.1H28.5387C29.556 14.1 30.3742 14.1 31.0363 14.1541C31.7173 14.2097 32.312 14.327 32.8611 14.6068C33.736 15.0526 34.4474 15.764 34.8932 16.6389C35.173 17.188 35.2903 17.7827 35.3459 18.4637C35.4 19.1258 35.4 19.944 35.4 20.9613V27.0387C35.4 28.0559 35.4 28.8742 35.3459 29.5363C35.2903 30.2172 35.173 30.8119 34.8932 31.361C34.4474 32.236 33.736 32.9473 32.8611 33.3932C32.312 33.6729 31.7173 33.7903 31.0363 33.8459C30.3742 33.9 29.556 33.9 28.5387 33.9H23.4613C22.444 33.9 21.6258 33.9 20.9637 33.8459C20.2827 33.7903 19.6881 33.6729 19.139 33.3932C18.264 32.9473 17.5526 32.236 17.1068 31.361C16.827 30.8119 16.7097 30.2172 16.6541 29.5363C16.6 28.8742 16.6 28.0559 16.6 27.0387V20.9613C16.6 19.944 16.6 19.1258 16.6541 18.4637C16.7097 17.7827 16.827 17.188 17.1068 16.6389C17.5526 15.764 18.264 15.0526 19.139 14.6068C19.6881 14.327 20.2827 14.2097 20.9637 14.1541C21.6258 14.1 22.444 14.1 23.4613 14.1ZM21.1103 15.9481C20.5406 15.9946 20.2092 16.0817 19.9561 16.2106C19.4199 16.4838 18.9839 16.9198 18.7106 17.4561C18.5817 17.7092 18.4947 18.0406 18.4481 18.6103C18.4007 19.1904 18.4 19.935 18.4 21V27C18.4 28.0649 18.4007 28.8095 18.4481 29.3897C18.4947 29.9593 18.5817 30.2908 18.7106 30.5438C18.9839 31.0801 19.4199 31.5161 19.9561 31.7893C20.2092 31.9183 20.5406 32.0053 21.1103 32.0519C21.6905 32.0993 22.4351 32.1 23.5 32.1H28.5C29.565 32.1 30.3095 32.0993 30.8897 32.0519C31.4594 32.0053 31.7908 31.9183 32.0439 31.7893C32.5801 31.5161 33.0161 31.0801 33.2894 30.5438C33.4183 30.2908 33.5054 29.9593 33.5519 29.3897C33.5993 28.8095 33.6 28.0649 33.6 27V21C33.6 19.935 33.5993 19.1904 33.5519 18.6103C33.5054 18.0406 33.4183 17.7092 33.2894 17.4561C33.0161 16.9198 32.5801 16.4838 32.0439 16.2106C31.7908 16.0817 31.4594 15.9946 30.8897 15.9481C30.3095 15.9007 29.565 15.9 28.5 15.9H23.5C22.4351 15.9 21.6905 15.9007 21.1103 15.9481Z" fill="#2D66EE"/>
</g>
<defs>
<filter id="filter0_d_64_766" x="0" y="0" width="52" height="52" filterUnits="userSpaceOnUse" color-interpolation-filters="sRGB">
<feFlood flood-opacity="0" result="BackgroundImageFix"/>
<feColorMatrix in="SourceAlpha" type="matrix" values="0 0 0 0 0 0 0 0 0 0 0 0 0 0 0 0 0 0 127 0" result="hardAlpha"/>
<feOffset dy="2"/>
<feGaussianBlur stdDeviation="2"/>
<feColorMatrix type="matrix" values="0 0 0 0 0 0 0 0 0 0 0 0 0 0 0 0 0 0 0.08 0"/>
<feBlend mode="normal" in2="BackgroundImageFix" result="effect1_dropShadow_64_766"/>
<feBlend mode="normal" in="SourceGraphic" in2="effect1_dropShadow_64_766" result="shape"/>
</filter>
</defs>
</svg>
