<svg width="20" height="16" viewBox="0 0 20 16" fill="none" xmlns="http://www.w3.org/2000/svg">
<path fill-rule="evenodd" clip-rule="evenodd" d="M5.79998 0.100098H5.76228H5.76225C4.95421 0.100088 4.29336 0.10008 3.75629 0.14396C3.20038 0.18938 2.6983 0.286263 2.22941 0.525173C1.49558 0.89908 0.898957 1.4957 0.525051 2.22954C0.28614 2.69842 0.189258 3.2005 0.143838 3.75642C0.0999575 4.29349 0.0999658 4.95433 0.0999759 5.76238V5.7624V5.8001V10.2001V10.2378V10.2378C0.0999658 11.0459 0.0999575 11.7067 0.143838 12.2438C0.189258 12.7997 0.28614 13.3018 0.525051 13.7707C0.898957 14.5045 1.49558 15.1011 2.22941 15.475C2.6983 15.7139 3.20038 15.8108 3.75629 15.8562C4.29337 15.9001 4.95422 15.9001 5.76227 15.9001H5.79998H14.2H14.2377C15.0457 15.9001 15.7066 15.9001 16.2437 15.8562C16.7996 15.8108 17.3017 15.7139 17.7705 15.475C18.5044 15.1011 19.101 14.5045 19.4749 13.7707C19.7138 13.3018 19.8107 12.7997 19.8561 12.2438C19.9 11.7067 19.9 11.0459 19.9 10.2378V10.2001V5.8001V5.76239C19.9 4.95434 19.9 4.29349 19.8561 3.75642C19.8107 3.2005 19.7138 2.69842 19.4749 2.22954C19.101 1.4957 18.5044 0.89908 17.7705 0.525173C17.3017 0.286263 16.7996 0.18938 16.2437 0.14396C15.7066 0.10008 15.0457 0.100088 14.2377 0.100098H14.2377H14.2H5.79998ZM3.38061 2.01226C3.51618 1.98091 3.68477 1.9558 3.90287 1.93798C4.35798 1.9008 4.94505 1.9001 5.79998 1.9001H14.2C15.0549 1.9001 15.642 1.9008 16.0971 1.93798C16.3152 1.9558 16.4838 1.98091 16.6193 2.01226L12.6103 5.52018C12.0325 6.02577 11.6369 6.37112 11.3074 6.61747C10.987 6.85708 10.7832 6.96064 10.6069 7.01279C10.2107 7.12993 9.78921 7.12993 9.3931 7.01279C9.21676 6.96064 9.01295 6.85708 8.69253 6.61747C8.3631 6.37112 7.96747 6.02577 7.38967 5.52019L3.38061 2.01226ZM2.05037 3.24009C2.00084 3.39577 1.96243 3.60233 1.93786 3.90299C1.90068 4.3581 1.89998 4.94517 1.89998 5.8001V10.2001C1.89998 11.055 1.90068 11.6421 1.93786 12.0972C1.97419 12.5418 2.04079 12.7806 2.12886 12.9535C2.3302 13.3486 2.65146 13.6699 3.0466 13.8712C3.21944 13.9593 3.45827 14.0259 3.90287 14.0622C4.35798 14.0994 4.94505 14.1001 5.79998 14.1001H14.2C15.0549 14.1001 15.642 14.0994 16.0971 14.0622C16.5417 14.0259 16.7805 13.9593 16.9534 13.8712C17.3485 13.6699 17.6698 13.3486 17.8711 12.9535C17.9592 12.7806 18.0258 12.5418 18.0621 12.0972C18.0993 11.6421 18.1 11.055 18.1 10.2001V5.8001C18.1 4.94517 18.0993 4.3581 18.0621 3.90299C18.0375 3.60233 17.9991 3.39577 17.9496 3.24009L13.7956 6.87482L13.7694 6.89776C13.2242 7.37477 12.7768 7.7663 12.3854 8.05899C11.9787 8.36308 11.5796 8.60219 11.1173 8.73889C10.388 8.95456 9.61192 8.95456 8.88265 8.73889C8.4204 8.60219 8.02121 8.36308 7.61455 8.05899C7.22317 7.76631 6.77574 7.3748 6.23062 6.8978L6.20436 6.87482L2.05037 3.24009Z" fill="#98A2B3"/>
</svg>
