<svg width="60" height="60" viewBox="0 0 60 60" fill="none" xmlns="http://www.w3.org/2000/svg">
<path d="M32.1214 30L38.4854 36.364C39.0712 36.9497 39.0712 37.8995 38.4854 38.4853C37.8996 39.0711 36.9499 39.0711 36.3641 38.4853L30.0001 32.1213L23.6361 38.4853C23.0504 39.0711 22.1006 39.0711 21.5148 38.4853C20.929 37.8995 20.929 36.9497 21.5148 36.364L27.8788 30L21.5148 23.636C20.929 23.0503 20.929 22.1005 21.5148 21.5147C22.1006 20.9289 23.0504 20.9289 23.6361 21.5147L30.0001 27.8787L36.3641 21.5147C36.9499 20.9289 37.8996 20.9289 38.4854 21.5147C39.0712 22.1005 39.0712 23.0503 38.4854 23.636L32.1214 30Z" fill="#98A2B3"/>
</svg>
